<svg width="12" height="12" viewBox="0 0 12 12" fill="none" xmlns="http://www.w3.org/2000/svg">
<path d="M0.397224 0.000879392C0.49147 0.0670623 0.597424 0.120944 0.67762 0.200891C2.41834 1.93844 4.15711 3.67842 5.89392 5.42085C5.92445 5.45665 5.95177 5.49507 5.97558 5.53565L6.02856 5.53887C6.05041 5.49724 6.0765 5.45799 6.10641 5.42173C7.84304 3.68047 9.5818 1.94049 11.3227 0.20177C11.4029 0.121824 11.508 0.0667686 11.6017 0H11.6953C11.7167 0.00878534 11.7375 0.0181571 11.7588 0.0263567C11.9871 0.11421 12.0565 0.377769 11.8976 0.56314C11.844 0.625223 11.7831 0.680278 11.7252 0.738847C10.0081 2.45687 8.29027 4.17431 6.57179 5.89116C6.54252 5.92044 6.50828 5.94973 6.46789 5.98516C6.50594 6.02587 6.53579 6.05896 6.5674 6.09059C8.31709 7.84258 10.0665 9.59477 11.8156 11.3471C11.8859 11.4174 11.9391 11.505 12 11.5844V11.7486C11.8829 11.9604 11.7477 12.0415 11.575 11.98C11.5033 11.9507 11.4387 11.9062 11.3856 11.8497C9.6258 10.0908 7.86694 8.33066 6.10905 6.5691C6.07639 6.53198 6.04609 6.49286 6.01832 6.45196C5.96534 6.50262 5.93051 6.53366 5.89919 6.56588C4.13955 8.32548 2.37922 10.0844 0.618205 11.8426C0.550639 11.9107 0.466503 11.96 0.374102 11.9856C0.236831 12.0192 0.122389 11.9536 0.0480461 11.8315C0.0127619 11.7746 -0.00378671 11.708 0.00072892 11.6412C0.00524455 11.5744 0.0305982 11.5107 0.0732187 11.459C0.103817 11.4235 0.136354 11.3896 0.170683 11.3577C1.92194 9.60629 3.6731 7.85488 5.42416 6.10347C5.45723 6.07038 5.49382 6.0408 5.53567 6.00361C5.49587 5.96144 5.46572 5.92777 5.43411 5.89614C3.68285 4.14473 1.93238 2.39254 0.182684 0.639576C0.108199 0.567447 0.0548573 0.476303 0.0284365 0.376015C-0.00756427 0.205872 0.0869743 0.0963468 0.304735 0.000879392H0.397224Z" fill="#141414"/>
</svg>
