<svg width="18" height="22" viewBox="0 0 18 22" fill="none" xmlns="http://www.w3.org/2000/svg">
<path d="M3.9034 5.75935C3.83726 2.4223 6.28755 -0.0633721 9.1047 0.00123085C11.7657 0.0612193 14.1276 2.4323 14.0791 5.73705C14.1483 5.74397 14.2206 5.75781 14.2929 5.75858C14.6967 5.75858 15.1005 5.75858 15.5042 5.75858C16.5563 5.7655 17.3423 6.48537 17.4062 7.52747C17.5523 9.92086 17.6854 12.3165 17.8253 14.7107C17.8722 15.5152 17.9092 16.3204 17.9791 17.1233C18.113 18.6984 17.61 19.9743 16.2579 20.8572C15.6997 21.2243 15.0456 21.4185 14.3775 21.4156C10.7913 21.4209 7.20507 21.4279 3.61961 21.4156C1.60307 21.4079 -0.0481486 19.7305 0.00107266 17.7086C0.0387577 16.1943 0.161044 14.6815 0.24872 13.171C0.354853 11.3506 0.474828 9.5317 0.568656 7.71051C0.63249 6.48614 1.36619 5.76089 2.59057 5.75935H3.9034ZM3.91724 6.69917C3.88374 6.69183 3.84985 6.68644 3.81573 6.68301C3.40196 6.68301 2.98896 6.68301 2.57596 6.68301C1.8661 6.68301 1.53232 7.02064 1.49232 7.73435C1.39004 9.56323 1.27467 11.3913 1.16777 13.2202C1.08086 14.7238 0.966275 16.2258 0.922437 17.7309C0.878599 19.236 2.12451 20.495 3.64268 20.4996C7.20815 20.5098 10.7736 20.5098 14.3391 20.4996C15.1605 20.4996 15.848 20.1666 16.3925 19.5513C17.0032 18.8591 17.1209 18.0447 17.057 17.1595C16.9463 15.6098 16.8686 14.0578 16.7771 12.5065C16.6802 10.8699 16.5863 9.23253 16.4864 7.59515C16.4571 7.11524 16.1472 6.73147 15.7019 6.70148C15.1697 6.66456 14.6321 6.69225 14.0699 6.69225C14.0699 7.05449 14.0699 7.39673 14.0699 7.73974C14.0699 8.08275 13.8992 8.28732 13.6184 8.29348C13.3377 8.29963 13.1508 8.08737 13.1485 7.72974C13.1485 7.3875 13.1485 7.04602 13.1485 6.70224H4.84245C4.84245 7.06601 4.84245 7.41057 4.84245 7.75435C4.84245 8.09813 4.65787 8.29655 4.37638 8.29271C4.0949 8.28886 3.92417 8.08428 3.92109 7.74281C3.91801 7.40134 3.91955 7.05525 3.91955 6.69917H3.91724ZM13.1247 5.74704C13.2908 4.12659 12.3718 2.31617 10.9713 1.47787C10.2214 1.03026 9.40849 0.826448 8.54173 0.954116C6.8213 1.20868 5.74689 2.25387 5.13931 3.82511C4.90458 4.43743 4.80616 5.09357 4.85091 5.74781L13.1247 5.74704Z" fill="black"/>
</svg>
