<svg width="60" height="38" viewBox="0 0 60 38" fill="none" xmlns="http://www.w3.org/2000/svg">
<path d="M38.3381 13.0392C38.2833 15.8459 38.2299 18.5624 38.1765 21.2789C38.1 25.1974 38.0322 29.1167 37.9362 33.0352C37.9146 33.883 37.771 34.7286 37.6736 35.5742C37.6523 35.6917 37.6084 35.8039 37.5444 35.9047C37.3922 36.1731 37.1909 36.212 36.9564 36.0057C36.8406 35.9025 36.743 35.7805 36.6678 35.6449C36.2688 34.9321 36.0184 34.1608 36.0184 33.3491C36.0004 27.1203 35.9852 20.8922 36.0047 14.6619C36.0141 11.9202 36.087 9.17844 36.1721 6.43669C36.2067 5.3234 36.2486 4.19207 36.4795 3.10908C36.6548 2.28512 37.1223 1.52175 37.4896 0.741798C37.5617 0.589559 37.7609 0.498649 37.9016 0.381042C38.0105 0.544104 38.1757 0.693461 38.2176 0.871674C38.4138 1.69925 38.5784 2.53115 38.7486 3.3681C39.2883 6.0211 39.8179 8.67555 40.367 11.3271C40.9016 13.9072 41.4269 16.4895 42.0077 19.0595C42.5701 21.5978 43.3118 24.093 44.2271 26.5265C44.2548 26.616 44.3114 26.6939 44.388 26.748C44.3692 26.4384 44.349 26.1289 44.3317 25.8187C44.3144 25.5084 44.3035 25.1946 44.2848 24.8807C43.9161 18.6757 43.6968 12.4635 43.8944 6.24549C43.924 5.29887 43.9616 4.34286 44.1167 3.41211C44.2848 2.402 44.7069 1.46403 45.2978 0.619145C45.3772 0.505868 45.5712 0.370219 45.6679 0.398358C45.7412 0.429695 45.806 0.477724 45.8574 0.538609C45.9088 0.599494 45.9452 0.671555 45.9637 0.74902C46.0532 1.41209 46.1578 2.08093 46.1549 2.74688C46.1311 7.43671 46.0417 12.1265 46.0539 16.8164C46.064 20.5307 46.1715 24.2479 46.2704 27.9587C46.331 30.2401 46.4659 32.5201 46.5438 34.8008C46.5451 35.1841 46.4949 35.5658 46.3945 35.9357C46.2754 36.4335 46.0489 36.4898 45.6593 36.1731C44.8815 35.5439 44.3815 34.7098 43.9435 33.844C42.9745 31.932 42.3208 29.9017 41.727 27.8555C40.7292 24.4139 39.9608 20.9167 39.2573 17.4044C38.9918 16.0768 38.7272 14.7492 38.4636 13.4216C38.4398 13.3141 38.3965 13.2175 38.3381 13.0392Z" fill="#141414"/>
<path d="M53.4148 8.68782C52.1587 9.40934 51.0656 10.1958 50.142 11.2066C49.7964 11.5847 49.5172 11.5934 49.2041 11.1778C48.6067 10.3776 48.3383 9.43892 48.2207 8.46921C48.1502 7.88717 48.1454 7.29906 48.2062 6.71594C48.2784 6.02761 48.6839 5.48937 49.2272 5.07594C51.6204 3.27216 54.145 1.68051 56.9127 0.503C57.2331 0.366635 57.552 0.228822 57.8759 0.102558C58.3413 -0.0785416 58.5758 -0.0417445 58.8226 0.391162C59.1353 0.942327 59.3992 1.51982 59.6112 2.11702C59.9378 3.01132 60.061 3.96715 59.9719 4.91505C59.912 5.50885 59.6162 5.87898 59.0275 6.09399C57.9813 6.47495 56.9596 6.92517 55.9358 7.3653C55.8766 7.40063 55.8264 7.44905 55.7889 7.50683C55.7513 7.56462 55.7276 7.63023 55.7193 7.69863C55.6472 11.9556 55.5952 16.2125 55.5245 20.4694C55.4586 24.4247 55.3829 28.3803 55.2972 32.3361C55.2749 33.4414 55.2446 34.5468 55.1905 35.6507C55.1667 35.9979 55.099 36.3407 54.9892 36.6709C54.9379 36.8311 54.7727 37.0649 54.6515 37.0678C54.4892 37.0678 54.2395 36.9235 54.1717 36.7756C53.9112 36.202 53.6573 35.6146 53.4985 35.0071C53.3701 34.5143 53.3391 33.984 53.3383 33.4703C53.3297 26.4356 53.3297 19.4004 53.3383 12.3647C53.3383 11.2586 53.3881 10.1525 53.4105 9.0457C53.4163 8.9519 53.4148 8.85738 53.4148 8.68782Z" fill="#141414"/>
<path d="M13.7749 9.58394C14.4243 7.01392 14.3954 4.02398 15.1458 1.53188C15.1942 1.36061 15.2861 1.20478 15.4125 1.07949C15.539 0.954214 15.6956 0.863742 15.8673 0.816855C19.1466 -0.00999784 15.4344 17.6815 12.1797 17.1562C12.0925 17.141 12.0039 17.1354 11.9156 17.1396C9.95307 17.2457 9.96172 12.7759 9.45162 11.1186C9.43213 11.0551 9.40833 10.9923 9.38596 10.9296C7.36573 5.12789 6.92055 12.6064 5.65791 14.9109C5.59416 15.0264 5.50923 15.129 5.40755 15.2132C2.76248 17.4174 1.93491 14.882 1.32379 12.3877C1.31658 12.3603 1.31153 12.3322 1.30648 12.3048C1.02869 10.6518 -1.78881 -0.00206333 1.82957 3.21371C1.98294 3.35053 2.09218 3.52984 2.14343 3.72887C2.54026 5.26642 2.82309 6.86745 3.19322 8.4454C3.41617 9.39491 4.70335 9.55147 5.15213 8.68638C9.02232 1.22739 9.39895 0.800263 11.7381 9.59549C12.0152 10.6431 13.5087 10.6366 13.7749 9.58394Z" fill="#141414"/>
<path d="M2.1571 23.7342C4.08643 22.0293 8.95808 21.4773 11.5764 21.4254C15.2323 21.3475 18.3348 23.4088 15.2562 26.8663C13.1775 28.8476 10.9372 30.414 8.66009 32.0085C5.29063 33.6197 6.07853 33.0388 5.99627 36.6731C5.88083 37.79 4.5482 37.4336 4.1795 36.6414C3.16217 33.2907 3.64486 29.4941 3.45799 25.9868C3.01787 25.2169 2.24008 24.7848 2.1571 23.7342ZM6.12903 30.0316C8.61464 29.1131 10.8189 27.2357 13.026 25.7321C15.2446 23.4485 11.3138 23.4507 9.87151 23.9456C4.77042 25.17 6.34043 25.3663 6.12903 30.0316Z" fill="#141414"/>
<path d="M28.8018 33.6428C27.9986 33.593 27.1933 33.6941 26.4273 33.9407C26.0197 34.0728 25.5904 34.1413 25.1834 34.2755C24.498 34.5021 23.8126 34.7294 23.1459 35.0086C21.907 35.5295 20.6639 36.0461 19.4662 36.6493C18.889 36.9379 18.5224 36.7344 18.0527 36.3304C17.3796 35.7532 17.4264 35.0728 17.7482 34.3491C18.02 33.7363 18.2959 33.1252 18.5758 32.5157C19.1357 31.2993 19.6826 30.0756 20.2678 28.8707C21.0131 27.3346 21.7649 25.8006 22.5651 24.2934C22.9267 23.5975 23.4111 22.9727 23.9951 22.4492C24.8248 21.714 25.6769 21.9167 26.3111 22.6765C27.156 23.6866 27.6582 24.8749 28.1488 26.0748C28.7823 27.6239 29.4476 29.1614 30.0681 30.7149C30.4656 31.7048 30.8199 32.712 31.1828 33.7156C31.4844 34.5504 31.7687 35.391 32.0623 36.2287C32.2355 36.7236 31.8646 37.1594 31.3321 37.0634C30.4028 36.8968 29.7391 36.4184 29.4519 35.4703C29.2657 34.8607 29.0262 34.2676 28.8018 33.6428ZM27.9699 31.5958C27.8256 31.2141 27.6813 30.8902 27.5832 30.5525C27.2051 29.2052 26.6912 27.8998 26.0492 26.6564C25.7917 26.1672 25.231 26.0236 24.8046 26.3475C24.1827 26.8201 23.8667 27.5193 23.5413 28.1824C23.0066 29.2805 22.5708 30.427 22.104 31.5569C21.9078 32.0316 21.736 32.5165 21.5535 32.9999L21.6257 33.072C23.6264 32.1846 25.7931 32.0222 27.9699 31.5958Z" fill="#141414"/>
<path d="M25.5362 14.0241C29.1229 12.3213 33.1366 16.4051 27.2599 16.1656C24.6517 15.6446 21.0953 19.7204 19.8125 16.0869C19.9496 14.8603 22.0203 14.8243 22.9944 14.4419C23.5759 11.7521 22.6747 8.15678 23.3385 5.19064C23.5139 4.02252 21.7454 5.49801 21.0593 5.46915C20.0318 5.69714 18.192 3.76927 19.5116 3.10692C22.542 2.2411 26.9959 -0.418386 29.7477 1.81902C30.1236 2.30676 30.2961 3.47272 29.4086 3.44891C28.3314 3.68413 26.6712 3.44891 25.9619 4.26855C25.6755 7.52545 25.6286 10.7557 25.5362 14.0241Z" fill="#141414"/>
</svg>
