<svg width="67" height="67" viewBox="0 0 67 67" fill="none" xmlns="http://www.w3.org/2000/svg">
<path fill-rule="evenodd" clip-rule="evenodd" d="M36.7524 0.150576C36.3647 0.101457 35.9774 0.0523813 35.5912 0H31.4061C31.1022 0.0399396 30.7982 0.0787429 30.4942 0.11754C29.548 0.238312 28.6022 0.359025 27.6615 0.513773C14.2844 2.71391 3.14148 13.6097 0.648569 26.9469C0.460861 27.9556 0.326304 28.9708 0.191771 29.9859C0.129591 30.455 0.0674158 30.9242 0 31.3926V35.5797C0.0660359 36.0395 0.126354 36.5006 0.18668 36.9618L0.186689 36.9619C0.318004 37.9657 0.44936 38.9698 0.63982 39.9625C4.79175 61.5968 28.9027 73.3874 48.5715 63.4125C62.3297 56.4364 69.5235 41.2102 66.1932 26.1116C63.3087 13.0366 52.4997 2.74886 39.2712 0.505038C38.4359 0.363893 37.5934 0.257133 36.7524 0.150576ZM33.5092 1.95548C50.9315 1.96597 65.0446 16.0825 65.0341 33.4896C65.0237 50.9107 50.9018 65.0168 33.4847 65.0045C16.0675 64.9923 1.95097 50.8793 1.96146 33.4669C1.97195 16.0545 16.0868 1.945 33.5092 1.95548ZM28.796 43.4016C25.2997 41.0424 23.2298 37.7274 22.5026 33.584L22.6774 33.4844C22.8137 33.6275 22.9497 33.7712 23.0859 33.9149C23.6363 34.4959 24.1884 35.0787 24.763 35.6391C24.8522 35.7362 24.9608 35.8135 25.0818 35.866C25.2028 35.9184 25.3335 35.9449 25.4654 35.9436C25.5973 35.9422 25.7274 35.9132 25.8473 35.8583C25.9673 35.8035 26.0743 35.724 26.1615 35.6251C26.2513 35.536 26.3222 35.4297 26.3697 35.3125C26.4172 35.1953 26.4405 35.0696 26.438 34.9432C26.4356 34.8167 26.4074 34.6921 26.3554 34.5768C26.3034 34.4616 26.2285 34.358 26.1353 34.2725C24.8242 32.9327 23.4973 31.6081 22.1547 30.2986C21.7369 29.8915 21.2212 29.8985 20.8034 30.3074C19.4631 31.6169 18.1374 32.9426 16.8262 34.2847C16.7345 34.3719 16.6615 34.4768 16.6116 34.5931C16.5617 34.7093 16.536 34.8345 16.536 34.961C16.536 35.0875 16.5617 35.2127 16.6116 35.329C16.6615 35.4453 16.7345 35.5502 16.8262 35.6373C17.2161 36.0393 17.7598 36.0462 18.2248 35.6251C18.466 35.4076 18.6939 35.1751 18.9217 34.9427L18.9217 34.9427L18.9218 34.9427L18.9218 34.9426L18.9218 34.9426C19.0143 34.8482 19.1069 34.7538 19.2003 34.6605L20.4887 33.3813C21.0131 37.0913 22.5236 40.1599 25.0672 42.8826H16.071C16.0061 42.8826 15.9409 42.8812 15.8757 42.8799H15.8755H15.8754H15.8752H15.875H15.8749H15.8748H15.8747H15.8746C15.7436 42.8771 15.6124 42.8744 15.4819 42.8826C14.9102 42.9263 14.5921 43.2845 14.5606 43.8C14.5291 44.3156 14.8228 44.6703 15.3368 44.7856C15.572 44.8283 15.8112 44.8447 16.05 44.8346C16.9496 44.835 17.8493 44.8349 18.7491 44.8348H18.7491H18.7491H18.7492H18.7492C21.4478 44.8345 24.1469 44.8341 26.8451 44.8485C27.1853 44.8578 27.5176 44.9541 27.8101 45.1282C33.8366 48.7712 39.8679 48.7712 45.9038 45.1282C46.1951 44.9519 46.5267 44.8533 46.867 44.8416C47.9522 44.8306 49.0373 44.8301 50.1225 44.8297C51.1089 44.8293 52.0954 44.8289 53.0818 44.8206C53.7986 44.8153 54.2006 44.3732 54.1797 43.7965C54.1587 43.2198 53.7671 42.8703 53.0678 42.8703H49.2743C49.172 42.8692 49.0698 42.8555 48.9454 42.8389L48.9454 42.8389L48.9452 42.8389C48.8783 42.8299 48.805 42.8201 48.7218 42.8109C48.779 42.746 48.8306 42.6877 48.8782 42.6339L48.8797 42.6322C48.9914 42.506 49.0808 42.4051 49.1676 42.3024C53.0398 37.7501 54.2636 32.5774 52.6902 26.8106C52.3787 25.6746 51.8366 24.5968 51.2973 23.5248C51.1497 23.2313 51.0023 22.9382 50.8599 22.6445C50.5522 22.0101 49.9333 21.8721 49.4386 22.1744C48.9438 22.4767 48.8477 23.0342 49.1973 23.6598C49.2409 23.7384 49.287 23.8162 49.3333 23.8944L49.3333 23.8945L49.3334 23.8946C49.3539 23.9292 49.3745 23.9639 49.3949 23.9988C51.0569 26.7978 51.7149 30.0796 51.2602 33.3026C49.8337 43.9014 37.6646 49.3781 28.796 43.4016ZM42.0193 15.4988C42.4219 15.7136 42.8194 15.923 43.2123 16.1299C44.1839 16.6416 45.1274 17.1386 46.0523 17.6675C46.5881 18.0037 47.0935 18.3861 47.5628 18.8103C48.1012 19.2577 48.1799 19.8589 47.8005 20.2922C47.4212 20.7256 46.853 20.7606 46.2953 20.2922C44.2088 18.5175 41.664 17.3667 38.953 16.9719C35.6323 16.4901 32.2471 17.1717 29.3719 18.901C26.4967 20.6303 24.3087 23.3008 23.1791 26.4593C22.8295 27.4676 22.382 27.8031 21.7351 27.5637C21.0883 27.3243 20.9729 26.7651 21.3453 25.776C21.5081 25.3398 21.6898 24.9114 21.8807 24.4613C21.9912 24.2009 22.1047 23.9333 22.2194 23.6527H18.5989C18.4608 23.6527 18.3225 23.6545 18.1842 23.6562H18.1841C17.9075 23.6597 17.6309 23.6632 17.3559 23.6527C16.6934 23.6178 16.2878 23.2193 16.2965 22.6497C16.3053 22.08 16.7074 21.706 17.3891 21.7025L18.0623 21.6982H18.0624H18.0625H18.0626C19.5862 21.6881 21.1087 21.6779 22.6232 21.713C23.2246 21.727 23.6337 21.5854 23.9885 21.0734C24.2503 20.6949 24.5637 20.3539 24.9093 19.9777L24.9093 19.9777C25.0806 19.7912 25.2599 19.5961 25.4448 19.3835H15.1008C14.8832 19.3944 14.665 19.3868 14.4487 19.3608C13.954 19.2752 13.6061 18.9292 13.6673 18.4696C13.7127 18.1201 14.0169 17.7706 14.2983 17.5224C14.425 17.4099 14.6706 17.4162 14.8965 17.4221L14.8966 17.4221C14.9514 17.4235 15.0049 17.4249 15.0553 17.4246C19.1548 17.4246 23.256 17.4245 27.3555 17.4071C27.7803 17.3808 28.1959 17.2722 28.5793 17.0873C28.9649 16.9207 29.3451 16.7372 29.7257 16.5534L29.7258 16.5534C30.2078 16.3207 30.6905 16.0877 31.1858 15.8885C31.5809 15.7295 31.7207 15.539 31.6998 15.1335C31.6683 14.48 31.6805 13.8246 31.6998 13.1711C31.7417 11.3065 33.0249 10.0255 34.8954 9.99756C36.2258 9.97834 37.5579 9.97309 38.8865 9.99756C40.7291 10.0325 41.9948 11.3187 42.021 13.1431C42.0268 13.6881 42.0242 14.2309 42.0218 14.7403V14.7407V14.7411V14.7415C42.0205 15.0042 42.0193 15.2581 42.0193 15.4988ZM33.6752 14.9937H40.0561C40.0561 14.8119 40.0575 14.6202 40.059 14.4224V14.4221V14.4218V14.4215C40.0622 14.0057 40.0655 13.5629 40.0561 13.1274C40.0368 12.4039 39.6488 11.9758 38.9198 11.96C37.5474 11.9303 36.1734 11.9356 34.7993 11.96C34.1769 11.9705 33.7504 12.3305 33.6944 12.9544C33.6481 13.4619 33.6583 13.9747 33.6678 14.4505V14.4505V14.4505V14.4507V14.4509V14.451V14.4512C33.6716 14.6387 33.6752 14.8204 33.6752 14.9937ZM42.5281 38.2271C41.1993 39.3408 39.5638 40.0251 37.8377 40.1896C37.8377 39.8842 37.839 39.5827 37.8403 39.2842V39.283C37.8443 38.3983 37.8481 37.5401 37.8167 36.6858C37.8045 36.214 37.9443 36.02 38.4041 35.8645C39.5231 35.4939 40.4647 34.721 41.0461 33.6959C41.6275 32.6707 41.8073 31.4663 41.5508 30.3161C41.0159 27.9884 38.9897 26.461 36.565 26.5607C34.3396 26.6498 32.4673 28.3851 32.0967 30.7005C31.747 32.8902 33.1089 35.1288 35.3081 35.861C35.7871 36.0218 35.8762 36.2472 35.8762 36.6911C35.8657 37.6348 35.8692 38.5793 35.8727 39.5236V39.5238V39.5239C35.8745 39.9958 35.8762 40.4677 35.8762 40.9393C35.8797 41.89 36.2486 42.2552 37.1769 42.2395C42.7868 42.1416 47.5786 37.4163 47.7534 31.8102C47.9404 25.79 43.57 20.9721 37.4513 20.4705C36.4916 20.3866 35.9566 20.6925 35.8902 21.3443C35.8238 21.9961 36.2731 22.3439 37.2783 22.4173C41.1348 22.7039 44.2378 25.0788 45.3758 28.6157C45.9202 30.3185 45.9397 32.1456 45.4318 33.8596C44.924 35.5736 43.9123 37.0953 42.5281 38.2271ZM34.8491 29.3449C35.3771 28.8135 36.0938 28.5125 36.843 28.5074C37.2139 28.5028 37.5821 28.5714 37.9265 28.7094C38.2708 28.8474 38.5846 29.052 38.8496 29.3114C39.1147 29.5709 39.3259 29.8801 39.4712 30.2213C39.6164 30.5626 39.6928 30.9291 39.696 31.2999C39.7034 31.6708 39.6373 32.0394 39.5014 32.3846C39.3655 32.7297 39.1625 33.0445 38.9043 33.3108C38.646 33.5771 38.3375 33.7896 37.9966 33.9361C37.6557 34.0826 37.2892 34.1601 36.9181 34.1641C36.5419 34.1727 36.1677 34.1062 35.8174 33.9684C35.4672 33.8306 35.148 33.6243 34.8786 33.3617C34.6091 33.099 34.3948 32.7852 34.2483 32.4387C34.1017 32.0921 34.0257 31.7199 34.0249 31.3436C34.0249 30.5947 34.3212 29.8762 34.8491 29.3449ZM28.4342 51.8009H16.0046C15.7869 51.8169 15.5682 51.8081 15.3525 51.7747C14.8455 51.6576 14.5466 51.3132 14.5606 50.7957C14.5564 50.5624 14.6402 50.3361 14.7954 50.1618C14.9506 49.9875 15.1657 49.878 15.398 49.8552C15.593 49.8333 15.7895 49.828 15.9854 49.8395H40.9197C41.1156 49.8265 41.3124 49.833 41.5071 49.8587C42.0315 49.9583 42.3217 50.287 42.327 50.8097C42.3322 51.3324 42.035 51.6681 41.5263 51.7765C41.3104 51.8074 41.0919 51.8156 40.8742 51.8009H28.4342ZM53.0049 49.8378H49.4176C49.0114 49.8378 48.6052 49.8372 48.199 49.8366C47.3869 49.8354 46.575 49.8343 45.7639 49.8378C45.0035 49.8413 44.5717 50.2329 44.5804 50.829C44.5891 51.4251 45.0069 51.7957 45.7254 51.7957C48.1624 51.8027 50.5982 51.8027 53.0329 51.7957C53.7531 51.794 54.1744 51.4531 54.1849 50.8342C54.1954 50.2154 53.7636 49.8378 53.0049 49.8378Z" fill="black"/>
</svg>
