<svg width="67" height="67" viewBox="0 0 67 67" fill="none" xmlns="http://www.w3.org/2000/svg">
<path fill-rule="evenodd" clip-rule="evenodd" d="M66.8434 36.8098C66.8926 36.4 66.9418 35.9902 67 35.5827L66.9913 31.3789C66.94 31.0016 66.8917 30.6253 66.8435 30.2496L66.8433 30.2481L66.8433 30.248L66.8433 30.2479L66.8432 30.2477L66.8432 30.2476L66.8432 30.2475L66.8432 30.2474C66.7339 29.3962 66.6251 28.5485 66.4836 27.7008C64.3012 14.6599 54.1495 3.8667 41.2485 0.920395C40.1035 0.658058 38.9345 0.501261 37.7659 0.344512L37.7659 0.344508C37.2074 0.269593 36.649 0.19469 36.0933 0.108281C35.9852 0.0915413 35.8806 0.0669588 35.7737 0.0418226L35.7737 0.0418194C35.7133 0.0276181 35.6521 0.0132401 35.5891 0H31.4022C30.9879 0.0579205 30.5733 0.112576 30.1587 0.167214C29.3234 0.277326 28.4885 0.387372 27.6583 0.523942C14.281 2.72275 3.14198 13.612 0.648994 26.9429C0.459292 27.9585 0.324119 28.9791 0.188891 30.0002C0.12763 30.4627 0.066358 30.9253 0 31.3876V35.5792C0.0503227 35.7881 0.0887708 35.9998 0.115147 36.2131C0.338069 39.1032 0.942902 41.9509 1.9138 44.6818C7.94651 61.7448 26.6622 71.0815 43.8601 65.2727C56.3442 61.0515 63.8598 52.1864 66.4766 39.2502C66.6464 38.4492 66.7449 37.6295 66.8434 36.8098ZM1.97137 33.4694C1.99056 16.0606 16.118 1.96303 33.5236 1.9805C50.95 1.99971 65.0566 16.1007 65.0374 33.5096C65.0182 50.9184 50.9081 65.009 33.4834 64.9985C16.0587 64.988 1.95218 50.8783 1.97137 33.4694ZM45.4488 19.5662C45.5164 19.6287 45.5841 19.6913 45.6518 19.7544L45.589 19.8871C45.3452 19.8871 45.1014 19.8908 44.8577 19.8945C44.3708 19.9019 43.8844 19.9092 43.3995 19.8871C42.1475 19.8216 40.9164 20.2278 39.9488 21.0258C38.677 22.0283 37.7785 21.9934 36.4596 21.0153C34.4185 19.5011 32.5954 19.5046 30.5456 21.0258C29.2337 21.9986 28.3841 21.9706 27.0425 21.038C26.4522 20.5992 25.7939 20.2605 25.0938 20.0356C23.7365 19.6566 22.463 19.9849 21.3465 20.8581C20.7429 21.3349 20.1358 21.7576 19.2966 21.7314C18.536 21.7069 17.9847 21.3087 17.4369 20.8756C16.6586 20.2268 15.6722 19.8813 14.6596 19.9028C14.5334 19.9012 14.4082 19.9249 14.2915 19.9727C14.1747 20.0205 14.0687 20.0913 13.9798 20.1809C13.8909 20.2705 13.821 20.3771 13.7741 20.4944C13.7273 20.6116 13.7045 20.7371 13.707 20.8634C13.7193 21.4188 14.0158 21.8135 14.5689 21.8292C15.3644 21.8519 15.9697 22.2204 16.5751 22.6692C18.4505 24.0629 20.3381 24.0455 22.224 22.6483C23.6982 21.555 24.4727 21.5585 25.9783 22.6623C27.8694 24.0594 29.7535 24.0594 31.6307 22.6623C33.1188 21.5672 33.8917 21.5655 35.3867 22.6623C37.3075 24.0717 39.223 24.1258 41.074 22.6221C42.1145 21.7724 43.2309 21.8472 44.3647 21.9232C44.7784 21.9509 45.1944 21.9787 45.6099 21.9619C45.2999 22.3426 44.961 22.6988 44.5963 23.0273C44.1113 23.5198 44.1026 24.1398 44.5108 24.5257C44.919 24.9117 45.4895 24.8855 45.9658 24.4175C46.8858 23.5186 47.7952 22.6099 48.6943 21.6912C49.2421 21.1323 49.2473 20.6503 48.7082 20.1002C47.808 19.1827 46.8991 18.2739 45.9815 17.3739C45.4843 16.8849 44.8859 16.8622 44.4829 17.2831C44.0799 17.704 44.1288 18.2699 44.6294 18.7799C44.8909 19.0501 45.1683 19.3067 45.4487 19.5662L45.4488 19.5662ZM47.6353 31.2444C46.626 31.234 45.6486 30.8888 44.8562 30.2629C43.2861 29.0753 42.5586 29.084 40.999 30.2402C39.1846 31.5867 37.2115 31.5815 35.3972 30.2262C33.8777 29.0945 33.1293 29.0945 31.5888 30.2262C29.7675 31.5762 27.7979 31.578 25.987 30.2262C24.457 29.0875 23.6929 29.0858 22.1786 30.2157C20.3625 31.571 18.3772 31.5867 16.5803 30.2297C15.9784 29.7756 15.3801 29.4036 14.5811 29.3827C14.0071 29.3669 13.6669 28.8989 13.6931 28.3662C13.7227 27.8056 14.1205 27.4633 14.7538 27.4545C15.7307 27.4423 16.5733 27.7934 17.3584 28.361C17.8013 28.7067 18.2927 28.9851 18.8169 29.187C19.6769 29.4735 20.4376 29.1364 21.1057 28.5705C22.3269 27.5366 23.7226 27.1734 25.2525 27.6187C25.919 27.8178 26.5418 28.237 27.1227 28.6421C28.3212 29.4805 29.2825 29.4997 30.4636 28.6177C32.6163 27.0109 34.3679 27.0127 36.5399 28.6177C37.721 29.4909 38.6979 29.4909 39.8737 28.6177C42.0405 27.0022 43.785 27.0005 45.9483 28.6072C47.1538 29.5031 48.1273 29.5119 49.3328 28.5828C50.2051 27.9121 51.1192 27.4179 52.2514 27.4458C52.8795 27.4598 53.2772 27.8073 53.2982 28.3679C53.311 28.4943 53.2974 28.6219 53.2583 28.7427C53.2191 28.8634 53.1552 28.9747 53.0706 29.0694C52.9861 29.164 52.8828 29.24 52.7672 29.2925C52.6517 29.3449 52.5266 29.3726 52.3997 29.3739C51.5693 29.3861 50.9535 29.7896 50.3533 30.2716C49.5854 30.8979 48.6259 31.2413 47.6353 31.2444ZM15.1865 43.0348H33.5044L51.8677 43.0331C52.0848 43.0487 52.303 43.0405 52.5184 43.0086C52.7375 42.9777 52.9379 42.8679 53.0821 42.6998C53.2262 42.5317 53.3043 42.3168 53.3017 42.0952C53.3209 41.5643 53.0365 41.229 52.5341 41.1032C52.3192 41.0669 52.1007 41.057 51.8834 41.0735H15.1359C14.9404 41.0612 14.7442 41.0665 14.5497 41.0893C14.0071 41.1888 13.7018 41.5189 13.7018 42.0795C13.7123 42.6069 14.0228 42.923 14.534 43.0174C14.7506 43.0425 14.9689 43.0483 15.1865 43.0348ZM38.3281 49.9963H24.9211C24.7029 50.0039 24.4844 49.9975 24.2669 49.9771C24.0464 49.9624 23.8392 49.8662 23.6857 49.707C23.5322 49.5479 23.4434 49.3372 23.4365 49.1161C23.3991 48.8968 23.4467 48.6715 23.5696 48.4862C23.6925 48.3009 23.8813 48.1695 24.0977 48.1188C24.3501 48.0552 24.6104 48.0281 24.8705 48.0385H51.8834C52.1224 48.0283 52.3618 48.05 52.5952 48.1031C52.8234 48.148 53.0247 48.2812 53.1554 48.4738C53.286 48.6664 53.3355 48.9029 53.293 49.1318C53.2865 49.3535 53.1959 49.5644 53.0398 49.7217C52.8836 49.879 52.6735 49.9709 52.4521 49.9788C52.2346 49.9978 52.0161 50.0036 51.7979 49.9963H38.3281ZM15.1864 37.2924H27.5519L36.5085 37.2801C36.9446 37.2801 37.3808 37.2819 37.8169 37.2836C38.6892 37.2871 39.5615 37.2906 40.4337 37.2801C41.0409 37.2714 41.4578 36.8505 41.4613 36.3178C41.4648 35.7851 41.0496 35.3765 40.4477 35.3293H39.9889H15.1341C14.8958 35.3125 14.6563 35.3283 14.4223 35.3765C14.1936 35.4223 13.9913 35.5546 13.8575 35.7458C13.7236 35.9371 13.6685 36.1725 13.7035 36.4034C13.7097 36.6256 13.7978 36.8378 13.9507 36.999C14.1037 37.1602 14.3108 37.2591 14.5322 37.2766C14.7496 37.2985 14.9683 37.3038 15.1864 37.2924ZM48.4919 37.2907H44.8388C44.1218 37.2907 43.7031 36.9169 43.7031 36.3196C43.7031 35.7223 44.1218 35.3381 44.8335 35.3364C47.2899 35.3282 49.7468 35.3282 52.2043 35.3364C52.9022 35.3364 53.3261 35.752 53.3086 36.3476C53.2912 36.9431 52.8899 37.2837 52.2113 37.2907C51.3841 37.2965 50.5562 37.2946 49.7295 37.2926H49.7293H49.7283C49.3158 37.2916 48.9035 37.2907 48.4919 37.2907ZM14.8078 49.9963H17.5555C17.8609 49.9963 18.1663 49.997 18.4715 49.9978C19.082 49.9994 19.6921 50.0009 20.3015 49.9963C21.0132 49.9893 21.4564 49.605 21.4529 49.0287C21.4494 48.4524 21.008 48.0454 20.2997 48.0454C18.4679 48.0303 16.6362 48.0303 14.8044 48.0454C14.0943 48.0524 13.6809 48.4803 13.7 49.0636C13.7192 49.6469 14.11 49.9875 14.8078 49.9963Z" fill="black"/>
</svg>
