<svg width="67" height="67" viewBox="0 0 67 67" fill="none" xmlns="http://www.w3.org/2000/svg">
<path fill-rule="evenodd" clip-rule="evenodd" d="M66.993 35.5753C66.9322 36.0012 66.8808 36.4297 66.8295 36.858C66.7336 37.6593 66.6377 38.4603 66.4794 39.2434C63.9027 52.0485 56.4958 60.9026 44.1905 65.1611C26.061 71.4493 6.58461 61.0441 1.27573 42.5814C-3.40951 26.2898 5.18533 8.73706 20.9111 2.44715C24.1041 1.15573 27.4777 0.366187 30.9122 0.106552C31.0822 0.0829617 31.2503 0.0473533 31.4153 0H35.6079C35.671 0.0132429 35.7322 0.027624 35.7927 0.0418283C35.8998 0.066968 36.0045 0.0915538 36.1128 0.108295C36.6672 0.194488 37.2239 0.269416 37.7806 0.344329L37.7807 0.344339C38.95 0.501698 40.1188 0.658998 41.2644 0.920516C54.1619 3.86722 64.3097 14.6619 66.4916 27.7046C66.6334 28.5525 66.7424 29.4004 66.8518 30.2518V30.2518V30.2519V30.2519V30.252V30.2521L66.852 30.2536L66.8522 30.2549C66.9004 30.6302 66.9487 31.0062 67 31.3832L66.993 35.5753ZM65.0295 33.5089C65.0539 16.1169 50.9546 1.99649 33.5343 1.97029C16.114 1.94409 2.01293 16.0436 1.98672 33.4565C1.96052 50.8695 16.0651 64.962 33.4819 64.9952C50.8987 65.0284 65.005 50.9219 65.0295 33.5089ZM16.2607 42.5131L15.9918 42.4626L15.9908 42.4624L15.9893 42.4621C15.6083 42.3905 15.2483 42.3229 14.8859 42.2564C14.5813 42.2175 14.2924 42.0981 14.0493 41.9105C13.8061 41.7229 13.6173 41.4739 13.5024 41.1891C12.5783 39.0694 12.0053 36.8134 11.8061 34.5097C11.6471 32.4416 12.7128 30.8014 14.561 30.0748C16.4424 29.3324 18.3378 29.8355 19.6795 31.4232C19.9327 31.7243 20.192 32.0192 20.4515 32.3144L20.4519 32.3148C20.6094 32.4939 20.767 32.6731 20.9233 32.8538C21.3373 33.3324 21.3757 33.921 20.9757 34.3123C20.5756 34.7036 19.9625 34.6861 19.4838 34.1726C19.1712 33.8371 18.8749 33.4927 18.5785 33.1482L18.5782 33.1479C18.4209 32.965 18.2636 32.7821 18.1037 32.6005C17.3421 31.7394 16.2992 31.4861 15.2633 31.9018C14.2273 32.3176 13.6683 33.1839 13.7592 34.3263C13.9272 36.2813 14.3987 38.1983 15.1567 40.0083C15.2144 40.1034 15.2904 40.1861 15.3804 40.2515C15.4704 40.3169 15.5725 40.3637 15.6808 40.3891C15.893 40.4486 16.1125 40.4819 16.3318 40.5152L16.3319 40.5152L16.3319 40.5152H16.332C16.5441 40.5474 16.756 40.5796 16.9613 40.6354C17.195 40.6911 17.4148 40.7945 17.6067 40.939C17.7987 41.0835 17.9588 41.266 18.077 41.4752C18.1953 41.6844 18.269 41.9157 18.2938 42.1547C18.3185 42.3937 18.2937 42.6352 18.2208 42.8642C18.1834 43.0567 18.1181 43.2426 18.0269 43.4162C17.5028 44.2284 17.7614 44.8537 18.3448 45.5507C21.9208 49.8179 26.3964 52.5148 31.9324 53.2676C35.2166 53.7148 38.2841 53.1244 40.7333 50.6476C41.6436 49.6959 42.3613 48.5773 42.8471 47.3533C42.5542 47.4306 42.2701 47.5101 41.9912 47.5882L41.9906 47.5884C41.4128 47.7501 40.8573 47.9057 40.2931 48.0223C33.7981 49.3661 28.0402 47.8662 23.0196 43.5227C22.4431 43.0249 22.34 42.445 22.7191 41.9891C23.1279 41.5 23.7044 41.514 24.321 42.0572C27.7881 45.1221 31.8351 46.6161 36.4621 46.5393C38.5805 46.507 40.6731 46.0694 42.627 45.2502L42.5457 45.1775C42.3926 45.0404 42.2776 44.9373 42.1536 44.8432C41.7979 44.5721 41.4389 44.3051 41.0798 44.0382L41.0797 44.0381C40.3541 43.4986 39.6287 42.9593 38.9322 42.3856C37.208 40.9638 35.1938 40.597 33.0539 40.6738C32.7934 40.6827 32.5279 40.8663 32.2816 41.0367L32.2233 41.0769C32.1971 41.0949 32.1712 41.1126 32.1455 41.1297C30.2064 42.424 29.6159 42.3419 28.3197 40.431C27.8907 39.8098 27.2922 39.3248 26.5955 39.0337C25.2635 38.4139 23.9835 37.6622 22.7175 36.9187L22.7051 36.9114C22.0605 36.5341 21.9277 35.9193 22.2736 35.4267C22.6195 34.9341 23.1471 34.9324 23.7777 35.2765C24.4863 35.6598 25.2023 36.0301 25.9185 36.4006L25.9185 36.4006L25.9185 36.4006L25.9186 36.4007L25.9186 36.4007L25.9191 36.401L25.9193 36.401L25.9193 36.4011L25.9194 36.4011L25.9194 36.4011L25.9194 36.4011C26.6878 36.7986 27.4564 37.1961 28.2167 37.6101C28.6279 37.8388 28.9986 38.1339 29.3137 38.4834C29.6768 38.9232 30.0145 39.3834 30.3252 39.8616C30.3615 39.8616 30.3874 39.8635 30.4063 39.8649C30.432 39.8667 30.4447 39.8676 30.4527 39.8616C33.143 37.7656 35.8909 38.6267 38.5567 39.8319C39.341 40.1876 40.0388 40.7388 40.7342 41.2881L40.7342 41.2881C41.0223 41.5158 41.31 41.743 41.6033 41.9559C42.4767 42.5987 43.3502 43.2485 44.2027 43.9332C44.5521 44.2179 44.8298 44.2441 45.1722 43.9629C45.6177 43.5977 46.0659 43.2359 46.514 42.8741L46.5143 42.8739L46.5146 42.8737L46.5149 42.8734L46.5151 42.8732L46.5154 42.873L46.5156 42.8728C47.2671 42.2661 48.0185 41.6595 48.7569 41.0372C49.281 40.59 49.7823 40.4782 50.2121 40.824C50.6872 41.2048 50.7362 41.8965 50.1929 42.3594C48.8373 43.514 47.4555 44.6389 46.0335 45.7113C45.6142 46.0275 45.312 46.3175 45.1408 46.8275C44.3285 49.2432 43.1021 51.4056 41.0425 52.9899C38.3086 55.0947 35.1449 55.6694 31.8275 55.2344C25.3639 54.3855 20.242 51.1908 16.28 46.0572C15.6406 45.2293 15.4362 44.4188 15.9096 43.4616C16.0425 43.1515 16.1597 42.8349 16.2607 42.5131ZM25.808 22.8434L25.8077 22.8432L25.8065 22.8423C25.335 22.4844 24.8572 22.1218 24.3682 21.7553C24.5138 21.6932 24.6254 21.6376 24.7228 21.589L24.7229 21.589L24.7231 21.5889L24.7231 21.5889C24.8009 21.5501 24.8697 21.5158 24.9395 21.4863C31.3629 19.3484 37.2168 20.3789 42.4576 24.6828C42.6332 24.8458 42.8181 24.9986 43.0113 25.1405C43.1963 25.2824 43.4292 25.347 43.6609 25.3206C43.8927 25.2943 44.1051 25.1789 44.2534 24.999C44.622 24.5902 44.6097 24.1291 44.2726 23.6942C44.1597 23.5613 44.0326 23.4412 43.8935 23.3361C38.237 18.6072 31.8811 17.3134 24.8259 19.4549C24.7012 19.493 24.575 19.528 24.418 19.5716L24.4179 19.5717C24.3374 19.594 24.2488 19.6186 24.1481 19.647C24.7211 18.3038 25.3919 17.1929 26.3283 16.2584C28.7547 13.841 31.7821 13.2419 35.0192 13.6663C40.363 14.3667 44.7338 16.9222 48.2957 20.9396C49.1185 21.8689 49.6426 22.7178 48.8548 23.8898C48.8354 23.9285 48.8213 23.9696 48.8128 24.0121C48.4949 25.0776 49.0347 26.0575 50.1143 26.33C50.3045 26.3775 50.4985 26.4054 50.6917 26.4332C50.9102 26.4647 51.1276 26.496 51.3371 26.5553C51.5542 26.6072 51.7423 26.742 51.8612 26.9308C52.6192 28.7408 53.0907 30.6578 53.2587 32.6129C53.3201 33.1274 53.2056 33.6475 52.9338 34.0887C52.6619 34.5298 52.2488 34.866 51.7616 35.0426C51.2776 35.2518 50.7387 35.2978 50.2262 35.1736C49.7138 35.0495 49.2557 34.7619 48.9212 34.3544C48.7618 34.1733 48.6055 33.9914 48.4493 33.8095L48.449 33.8091C48.1533 33.4648 47.8576 33.1206 47.5411 32.7823C47.0572 32.2653 46.4545 32.2443 46.0492 32.6339C45.6439 33.0234 45.6666 33.5946 46.0929 34.0906C46.3191 34.3539 46.5474 34.6153 46.7755 34.8765L46.7758 34.8768C46.9773 35.1076 47.1787 35.3383 47.3786 35.5701C48.7325 37.1369 50.6488 37.619 52.5163 36.8591C54.3383 36.1185 55.3865 34.4504 55.2118 32.3823C55.0028 30.1016 54.432 27.8687 53.5208 25.7675C53.406 25.4826 53.2176 25.2333 52.9748 25.0452C52.732 24.857 52.4435 24.7368 52.139 24.6968C51.6935 24.6147 51.2498 24.5326 50.7589 24.44C50.8141 24.2904 50.8646 24.1462 50.9138 24.006L50.914 24.0053L50.9146 24.0036L50.9146 24.0035C51.016 23.7141 51.1114 23.442 51.2288 23.1754C51.5345 22.4383 51.4105 21.7815 50.9388 21.1527C46.9943 15.8899 41.8322 12.5938 35.2707 11.7205C31.9516 11.2751 28.7862 11.8288 26.04 13.9074C23.949 15.4881 22.7087 17.661 21.8841 20.1064C21.7273 20.5692 21.4198 20.9659 21.0106 21.2331C19.8777 22.071 18.785 22.963 17.6924 23.855L17.6923 23.855C17.4389 24.0619 17.1855 24.2688 16.9316 24.475C16.7594 24.6095 16.6241 24.7856 16.5385 24.9867C16.3656 25.4339 16.4425 25.8653 16.86 26.1448C17.3456 26.4767 17.7806 26.3387 18.2191 25.9701C18.9255 25.3763 19.643 24.7948 20.3609 24.2127L20.361 24.2127L20.3611 24.2126L20.3612 24.2126L20.3613 24.2125C20.8575 23.8102 21.3541 23.4076 21.8474 23.0007C22.2195 22.7021 22.5078 22.7684 22.8694 23.0514C23.7185 23.7144 24.5779 24.3634 25.4373 25.0125L25.4379 25.0129L25.4384 25.0133L25.439 25.0138L25.4395 25.0142C26.0398 25.4675 26.64 25.9208 27.2367 26.3789C29.3871 28.0278 31.8782 28.3614 34.4759 28.2479C34.7591 28.2355 35.0451 28.0632 35.311 27.9029C35.3469 27.8813 35.3824 27.8599 35.4175 27.8391C35.712 27.6682 35.994 27.4763 36.2802 27.2814C36.4065 27.1955 36.5336 27.109 36.663 27.0234C36.9982 27.5388 37.3603 28.0361 37.7479 28.5134C38.0482 28.8453 38.4026 29.1241 38.796 29.3378C39.5315 29.7361 40.2739 30.1203 41.0163 30.5046L41.0166 30.5047C41.7589 30.889 42.5013 31.2732 43.2367 31.6714C43.8708 32.0155 44.3949 32.0208 44.7443 31.5334C45.0936 31.0461 44.9609 30.4243 44.3233 30.0452C44.1507 29.9423 43.9782 29.8386 43.8057 29.7348L43.8054 29.7346L43.8051 29.7344L43.8048 29.7342C42.7833 29.1198 41.7584 28.5034 40.6722 28.0313C39.7737 27.6637 39.008 27.0321 38.4763 26.2199C37.4823 24.7405 36.6962 24.6269 35.2113 25.6138C35.1131 25.6792 35.0136 25.7548 34.9132 25.8311L34.9132 25.8311C34.6297 26.0467 34.3385 26.2682 34.0444 26.2811C32.2206 26.3579 30.4056 26.2094 28.8526 25.1055C27.8328 24.3803 26.8352 23.6231 25.808 22.8435L25.808 22.8434ZM18.3694 16.4767C18.4997 16.472 18.6296 16.4936 18.7514 16.5402C18.8732 16.5868 18.9843 16.6575 19.0782 16.7479C19.1721 16.8384 19.2469 16.9469 19.298 17.0668C19.349 17.1868 19.3755 17.3158 19.3756 17.4462C19.3686 17.6982 19.2672 17.9384 19.0915 18.1193C18.9159 18.3001 18.6787 18.4084 18.427 18.4228C18.164 18.4242 17.911 18.3216 17.7232 18.1374C17.5354 17.9532 17.428 17.7023 17.4243 17.4393C17.4251 17.1872 17.5244 16.9455 17.701 16.7657C17.8776 16.5859 18.1174 16.4822 18.3694 16.4767ZM55.6022 21.5068C55.4806 21.46 55.3508 21.4381 55.2205 21.4426C55.0959 21.4428 54.9726 21.4678 54.8577 21.5161C54.7429 21.5644 54.6388 21.6351 54.5515 21.724C54.4642 21.8129 54.3954 21.9183 54.3493 22.0341C54.3031 22.1498 54.2803 22.2736 54.2824 22.3982C54.281 22.5283 54.3056 22.6575 54.3547 22.778C54.4037 22.8986 54.4763 23.0082 54.5682 23.1004C54.6601 23.1926 54.7694 23.2656 54.8898 23.3151C55.0102 23.3646 55.1393 23.3896 55.2694 23.3887C55.5207 23.3725 55.7571 23.264 55.9332 23.0841C56.1093 22.9041 56.2126 22.6654 56.2233 22.4139C56.2236 22.2836 56.1976 22.1545 56.1469 22.0345C56.0963 21.9144 56.0219 21.8058 55.9283 21.7152C55.8347 21.6245 55.7238 21.5536 55.6022 21.5068ZM49.585 47.5367C49.8364 47.5329 50.0793 47.6273 50.262 47.7999C50.4447 47.9726 50.5528 48.2097 50.5633 48.4609C50.5727 48.5908 50.5551 48.7212 50.5114 48.844C50.4678 48.9667 50.3991 49.079 50.3098 49.1738C50.2204 49.2686 50.1123 49.3438 49.9924 49.3945C49.8724 49.4453 49.7432 49.4706 49.613 49.4688C49.4885 49.4742 49.3642 49.4546 49.2474 49.4113C49.1306 49.3679 49.0236 49.3017 48.9328 49.2164C48.842 49.1311 48.7691 49.0285 48.7186 48.9147C48.6679 48.8008 48.6406 48.678 48.6382 48.5534C48.6304 48.4238 48.649 48.2938 48.6929 48.1716C48.7368 48.0493 48.8051 47.9372 48.8937 47.8421C48.9822 47.747 49.0891 47.671 49.208 47.6185C49.3268 47.566 49.4551 47.5382 49.585 47.5367ZM25.8823 30.4871C26.0575 30.3073 26.1577 30.0675 26.1623 29.8165C26.1589 29.6865 26.1298 29.5586 26.0767 29.44C26.0235 29.3213 25.9474 29.2144 25.8527 29.1254C25.758 29.0364 25.6466 28.967 25.5249 28.9213C25.4033 28.8756 25.2737 28.8545 25.1438 28.8592C25.0193 28.8607 24.8963 28.8871 24.7821 28.9367C24.6678 28.9863 24.5646 29.0581 24.4784 29.1481C24.3922 29.238 24.3248 29.3442 24.2801 29.4604C24.2354 29.5767 24.2143 29.7007 24.218 29.8252C24.2158 29.9553 24.2406 30.0845 24.2907 30.2046C24.3408 30.3247 24.4151 30.4332 24.5091 30.5232C24.6031 30.6133 24.7146 30.6829 24.8368 30.7279C24.9589 30.7728 25.089 30.792 25.219 30.7843C25.4698 30.7732 25.707 30.6669 25.8823 30.4871Z" fill="black"/>
</svg>
