<svg width="67" height="68" viewBox="0 0 67 68" fill="none" xmlns="http://www.w3.org/2000/svg">
<path fill-rule="evenodd" clip-rule="evenodd" d="M66.993 35.5728C66.9322 35.9984 66.8812 36.4265 66.8301 36.8545C66.7345 37.6563 66.6389 38.4578 66.4794 39.2414C63.9044 52.0482 56.4957 60.8946 44.1903 65.1624C26.0606 71.4514 6.58403 61.0449 1.2751 42.5798C-3.40843 26.2949 5.18474 8.73642 20.9106 2.44746C24.1035 1.15526 27.4772 0.365588 30.9118 0.10656C31.0824 0.0829674 31.2511 0.0473604 31.4167 0H35.6093C35.673 0.0133748 35.7346 0.0279104 35.7954 0.0422526C35.9013 0.0672494 36.0048 0.0916585 36.1125 0.108309C36.6676 0.194622 37.2252 0.269458 37.7829 0.344289C38.952 0.501184 40.121 0.658056 41.2659 0.920638C54.1618 3.86772 64.3097 14.6638 66.4916 27.7064C66.66 28.7136 66.788 29.7208 66.9168 30.7338L66.9168 30.734L66.9168 30.7342L66.9168 30.7344L66.9169 30.7346L66.9169 30.7348L66.9169 30.735L66.9169 30.7351L66.917 30.7353L66.917 30.7355L66.917 30.7357L66.917 30.7358L66.9171 30.736L66.9171 30.7361L66.9171 30.7362L66.9172 30.7369L66.9179 30.7422L66.954 31.0261L67 31.3854L66.993 35.5728ZM33.4903 64.9964C50.8898 65.0139 65.0137 50.9092 65.0312 33.4975C65.0487 16.0858 50.9439 1.98102 33.527 1.96355C16.1101 1.94608 2.00707 16.0508 1.98785 33.4608C1.96863 50.8707 16.0786 64.9877 33.4903 64.9964ZM33.4397 30.1748C29.7299 30.1286 26.0528 29.4748 22.5545 28.2392C21.8383 27.9894 21.5448 27.5072 21.7457 26.9115C21.9344 26.3525 22.4864 26.1481 23.2114 26.4014C26.7514 27.6465 30.4882 28.2384 34.2398 28.1483C39.5522 28.0226 44.4855 26.5761 49.0887 23.9417C49.7316 23.5737 50.3785 23.215 51.0295 22.8656C51.6532 22.5337 52.2105 22.6665 52.49 23.1888C52.7695 23.7111 52.5896 24.2108 52.0061 24.5619C47.485 27.2731 42.7141 29.317 37.4139 29.8883C36.5042 29.9868 35.5919 30.0416 34.68 30.0963C34.2664 30.1211 33.8529 30.1459 33.4397 30.1748ZM43.2015 38.3068C40.0588 37.3303 36.8444 36.8376 32.8055 36.8499C26.7576 36.7643 20.6416 38.941 14.9274 42.454C14.4191 42.7667 14.2793 43.2751 14.5221 43.745C14.5786 43.864 14.659 43.97 14.7584 44.0563C14.8579 44.1427 14.9741 44.2075 15.0998 44.2467C15.2255 44.286 15.358 44.2987 15.4888 44.2842C15.6197 44.2697 15.7462 44.2283 15.8603 44.1625C16.3523 43.9188 16.8282 43.6441 17.3036 43.3697L17.4334 43.2948L17.574 43.214C25.561 38.6125 33.9673 37.5661 42.8085 40.2442C43.7536 40.5307 44.3248 40.3734 44.4995 39.741C44.6899 39.0807 44.3545 38.6632 43.3902 38.3575C43.3567 38.3463 43.3228 38.3381 43.2891 38.33C43.2595 38.3229 43.2301 38.3158 43.2015 38.3068ZM32.5278 22.5372V21.7511V13.3221C32.5195 13.0825 32.5341 12.8427 32.5714 12.6059C32.6003 12.3857 32.7118 12.1848 32.8835 12.044C33.0552 11.9031 33.274 11.833 33.4956 11.8477C33.7166 11.8278 33.9369 11.8927 34.1118 12.0293C34.2867 12.1659 34.403 12.3639 34.4372 12.5832C34.4803 12.8411 34.4973 13.1027 34.4878 13.3641V21.662V22.6368C34.6372 22.4946 34.7725 22.3663 34.8983 22.2469L34.8993 22.246L34.9001 22.2452C35.1414 22.0163 35.3482 21.8202 35.5535 21.6218C36.1317 21.0645 36.7187 21.0034 37.1467 21.4594C37.5747 21.9153 37.5083 22.4359 36.9493 23.0019C36.1072 23.8544 35.26 24.7017 34.4075 25.5437C33.7297 26.2128 33.2877 26.2163 32.6238 25.5594C31.7574 24.7011 30.895 23.8381 30.0366 22.9704C29.4898 22.4184 29.4462 21.8699 29.8916 21.4297C30.3371 20.9894 30.8909 21.0803 31.4412 21.6043C31.5818 21.7406 31.7211 21.8786 31.8604 22.0166C31.9997 22.1546 32.1391 22.2926 32.2797 22.4289C32.3585 22.4734 32.4416 22.5096 32.5278 22.5372ZM34.5139 44.6903C34.5183 44.6233 34.5226 44.5564 34.5263 44.4892L34.7114 44.3757C34.8129 44.4884 34.9126 44.6036 35.0123 44.7188L35.0128 44.7193L35.0128 44.7193C35.2219 44.9609 35.4313 45.2027 35.6583 45.4238C36.1579 45.913 36.7554 45.9234 37.1537 45.5024C37.552 45.0814 37.5292 44.5469 37.0488 44.0542C36.1521 43.1342 35.2431 42.2252 34.3219 41.3273C33.7401 40.7595 33.2737 40.77 32.6815 41.3535C31.7812 42.2386 30.888 43.1319 30.0017 44.0333C29.4951 44.5504 29.4864 45.1251 29.8986 45.5269C30.3109 45.9287 30.8769 45.8937 31.401 45.4046C31.6187 45.2005 31.8327 44.992 32.0826 44.7485L32.0827 44.7484L32.0827 44.7484C32.2199 44.6148 32.3678 44.4707 32.533 44.311V45.2072V53.6362C32.525 53.8751 32.539 54.1143 32.5749 54.3507C32.6034 54.5711 32.7148 54.7725 32.8865 54.9137C33.0582 55.0549 33.2772 55.1253 33.4991 55.1106C33.7201 55.131 33.9406 55.0666 34.1159 54.9303C34.2911 54.794 34.4078 54.5961 34.4424 54.3769C34.4856 54.1195 34.5026 53.8585 34.4931 53.5977V45.1688C34.4931 45.0088 34.5035 44.8497 34.5139 44.6903ZM24.6456 18.7953V22.3625V23.0805C24.6246 23.816 24.2787 24.2143 23.6691 24.2108C23.0594 24.2073 22.6995 23.795 22.6908 23.0683C22.6803 22.2523 22.6838 21.4362 22.6873 20.6233C22.689 20.2181 22.6908 19.8135 22.6908 19.4102C22.6908 19.2786 22.6822 19.147 22.6701 18.9608L22.6701 18.9607L22.6701 18.9604C22.6633 18.8551 22.6553 18.7323 22.6471 18.5822C22.5002 18.7386 22.3672 18.8831 22.2426 19.0184L22.2417 19.0193L22.2416 19.0194C21.9771 19.3067 21.7508 19.5526 21.5099 19.784C21.0277 20.247 20.4617 20.2592 20.0634 19.8522C19.6651 19.4451 19.6721 18.8791 20.135 18.4075C21.0504 17.4758 21.9745 16.5511 22.9074 15.6333C23.4193 15.132 23.9451 15.1215 24.4569 15.6176C25.3886 16.5295 26.3122 17.4542 27.2276 18.3917C27.7062 18.8826 27.722 19.4242 27.3202 19.8417C26.9184 20.2592 26.3279 20.2452 25.8248 19.7474C25.5936 19.5174 25.3813 19.2685 25.1687 19.0193C25.0713 18.9051 24.9738 18.7908 24.8744 18.6782L24.6456 18.7953ZM41.8378 19.0242C41.9392 18.9016 42.0407 18.7791 42.1446 18.659L42.3787 18.811C42.3787 19.2942 42.3772 19.7776 42.3756 20.261V20.2612V20.2614V20.2616V20.2618V20.262V20.2622V20.2624V20.2626V20.2628V20.263V20.2637C42.3725 21.2318 42.3694 22.2002 42.3787 23.1679C42.3857 23.8177 42.7386 24.1933 43.2994 24.216C43.8863 24.2405 44.3004 23.8561 44.3248 23.1923C44.3461 22.5995 44.3422 22.0058 44.3384 21.4118V21.4117V21.4116V21.4115V21.4114V21.4113V21.4111V21.411V21.4109V21.4108V21.4107C44.3368 21.1771 44.3353 20.9435 44.3353 20.7099V18.7883L44.4978 18.7272C44.5974 18.8317 44.6963 18.9373 44.7952 19.0431C45.0188 19.282 45.2429 19.5214 45.4778 19.7491C45.9896 20.2452 46.5749 20.247 46.9714 19.8469C47.368 19.4469 47.3522 18.8774 46.8858 18.3987C45.9704 17.4635 45.0469 16.54 44.1152 15.6281C43.6033 15.1285 43.074 15.1302 42.5639 15.6281C41.6287 16.5458 40.7052 17.4705 39.7933 18.4022C39.3181 18.8896 39.3164 19.4469 39.7147 19.8522C40.113 20.2575 40.6877 20.2522 41.1611 19.7875C41.4029 19.5493 41.6203 19.2867 41.8378 19.0242ZM22.6838 48.1612V44.4665C22.6736 44.2055 22.6782 43.9442 22.6978 43.6838C22.7659 43.0724 23.1764 42.716 23.7459 42.7492C24.284 42.7824 24.6316 43.1423 24.6404 43.7555C24.6515 44.4867 24.6497 45.2179 24.648 45.9491C24.6467 46.4809 24.6454 47.0127 24.6491 47.5446V48.17L24.8483 48.2992C24.9486 48.1859 25.0472 48.0709 25.1457 47.956L25.1457 47.9559L25.1457 47.9559L25.1457 47.9559L25.1457 47.9559L25.1458 47.9558L25.1458 47.9558L25.1458 47.9558L25.146 47.9556C25.3663 47.6985 25.5864 47.4416 25.8265 47.2039C26.3262 46.7095 26.9149 46.6938 27.3202 47.1218C27.7255 47.5498 27.6992 48.0774 27.2153 48.5735C26.3034 49.5052 25.3793 50.4293 24.443 51.3459C23.9538 51.8228 23.4175 51.8263 22.9406 51.3616C21.9903 50.4299 21.051 49.4906 20.1228 48.5438C19.6599 48.0704 19.6529 47.5044 20.0669 47.0991C20.4809 46.6938 21.019 46.7235 21.5151 47.1795C21.6898 47.3419 21.8645 47.5114 22.0235 47.6861C22.137 47.8108 22.2461 47.9445 22.3551 48.0782C22.3988 48.1317 22.4424 48.1852 22.4864 48.2381L22.6838 48.1612ZM44.9017 47.8207L44.9016 47.8208L44.9016 47.8209L44.9008 47.8217C44.7763 47.9587 44.6514 48.0961 44.5222 48.2311L44.3685 48.163C44.3655 48.1027 44.3619 48.0426 44.3583 47.9825C44.3494 47.8337 44.3406 47.6852 44.3406 47.5358C44.337 47.0286 44.3387 46.5211 44.3404 46.0135V46.0135V46.0134V46.0134V46.0133V46.0133V46.0132V46.0131V46.0131V46.0126C44.3428 45.2793 44.3452 44.5459 44.3318 43.8131C44.3196 43.1353 43.9388 42.7457 43.3448 42.7475C42.7508 42.7492 42.4067 43.1231 42.3805 43.8218V44.4752V48.1682L42.1516 48.3255C42.0414 48.1971 41.9344 48.0661 41.8275 47.9353L41.8274 47.9352L41.8273 47.935L41.8272 47.9349L41.827 47.9347L41.8269 47.9346L41.8268 47.9345L41.8267 47.9343L41.8266 47.9342C41.5949 47.6507 41.3639 47.368 41.1035 47.1148C41.0185 47.0217 40.9156 46.9466 40.8009 46.8942C40.6862 46.8417 40.5621 46.8129 40.4361 46.8095C40.31 46.8061 40.1846 46.8281 40.0672 46.8742C39.9499 46.9204 39.8431 46.9898 39.7531 47.0781C39.6532 47.1644 39.5726 47.2707 39.5167 47.3903C39.4608 47.5098 39.4308 47.6399 39.4286 47.7718C39.4265 47.9038 39.4522 48.0347 39.5043 48.156C39.5563 48.2773 39.6333 48.3863 39.7304 48.4757C40.6807 49.4645 41.6555 50.4323 42.6408 51.3861C43.0723 51.8088 43.6103 51.8141 44.0383 51.4001C45.0259 50.4462 45.9966 49.4773 46.9505 48.4931C47.0477 48.4046 47.1254 48.2967 47.1786 48.1764C47.2318 48.056 47.2592 47.9259 47.2592 47.7944C47.2592 47.6628 47.2318 47.5327 47.1786 47.4124C47.1254 47.2921 47.0477 47.1842 46.9505 47.0956C46.5557 46.7095 46.0054 46.7095 45.5529 47.1393C45.3243 47.3559 45.1136 47.5877 44.9017 47.8207ZM46.8911 39.7497C47.0563 39.7948 47.2175 39.8532 47.3732 39.9244L47.9966 40.2556C49.3406 40.9694 50.6854 41.6835 52.0183 42.4173C52.607 42.7422 52.7608 43.2908 52.4778 43.7887C52.1948 44.2865 51.6515 44.4263 51.0697 44.1188C49.4952 43.2896 47.9264 42.4499 46.3635 41.5997C46.1616 41.5103 45.9995 41.35 45.9077 41.1492C45.816 40.9483 45.801 40.7208 45.8656 40.5097C45.9914 40.031 46.3268 39.7882 46.8911 39.7497ZM15.6751 22.7382C15.5543 22.6891 15.4175 22.6335 15.2558 22.5616C15.178 22.639 15.0889 22.7137 14.9984 22.7895C14.7947 22.9603 14.5843 23.1367 14.4802 23.3617C14.2496 23.8666 14.5274 24.2929 14.9938 24.5514L15.2845 24.7119C16.4976 25.3817 17.7103 26.0513 18.9349 26.6984C19.5917 27.0355 20.1787 26.8643 20.4337 26.3368C20.6888 25.8092 20.4739 25.3131 19.8311 24.9637L19.4022 24.7283L19.4018 24.7281C18.3097 24.1286 17.2172 23.5288 16.1206 22.9372C15.9879 22.8652 15.848 22.8084 15.6752 22.7382L15.6751 22.7382ZM37.2794 32.8039C37.2748 32.9342 37.2441 33.0622 37.1894 33.1805C37.1346 33.2988 37.0568 33.405 36.9605 33.4928C36.8642 33.5807 36.7513 33.6484 36.6285 33.6921C36.5057 33.7358 36.3754 33.7546 36.2453 33.7473C35.9936 33.7359 35.7566 33.6257 35.5859 33.4405C35.4151 33.2554 35.3244 33.0102 35.3334 32.7585C35.3391 32.5067 35.4416 32.2668 35.6195 32.0886C35.7974 31.9103 36.0372 31.8074 36.2889 31.8012C36.5523 31.8058 36.8035 31.9133 36.9886 32.1007C37.1737 32.2881 37.2781 32.5405 37.2794 32.8039ZM47.1007 33.6797C47.2218 33.7278 47.3513 33.7513 47.4815 33.749C47.7332 33.7454 47.9733 33.6429 48.1501 33.4638C48.3269 33.2848 48.4262 33.0434 48.4266 32.7917C48.428 32.6614 48.4034 32.5321 48.3542 32.4114C48.3051 32.2907 48.2323 32.181 48.1402 32.0888C48.0482 31.9966 47.9386 31.9236 47.818 31.8742C47.6974 31.8249 47.5682 31.8 47.4379 31.8012C47.1861 31.8148 46.9485 31.9217 46.7712 32.1009C46.5939 32.2801 46.4897 32.5189 46.4788 32.7707C46.4797 32.901 46.5064 33.0298 46.5574 33.1497C46.6085 33.2696 46.6828 33.3782 46.776 33.4691C46.8693 33.5601 46.9796 33.6317 47.1007 33.6797ZM20.5386 34.1543C20.5368 34.4178 20.4323 34.6702 20.2473 34.8578C20.0623 35.0454 19.8114 35.1534 19.548 35.1588C19.2962 35.1522 19.0566 35.0492 18.8785 34.8711C18.7003 34.693 18.5973 34.4533 18.5907 34.2015C18.5817 33.9498 18.6725 33.7047 18.8432 33.5195C19.014 33.3344 19.251 33.2241 19.5026 33.2127C19.6328 33.2052 19.7631 33.2237 19.886 33.2672C20.0089 33.3107 20.1219 33.3782 20.2184 33.4659C20.3149 33.5536 20.3929 33.6597 20.4479 33.7779C20.5028 33.8961 20.5337 34.0241 20.5386 34.1543ZM30.0072 34.8336C30.1851 35.0269 30.4312 35.1435 30.6935 35.1588C30.9456 35.1611 31.1889 35.0664 31.3732 34.8945C31.5575 34.7225 31.6688 34.4863 31.684 34.2347C31.6928 34.1047 31.675 33.9743 31.6318 33.8514C31.5885 33.7286 31.5207 33.6158 31.4324 33.52C31.3441 33.4242 31.2373 33.3474 31.1183 33.2943C30.9994 33.2412 30.8709 33.2128 30.7406 33.211C30.4885 33.205 30.2438 33.2964 30.0573 33.4662C29.8709 33.6361 29.7571 33.8713 29.7397 34.1229C29.7333 34.3855 29.8292 34.6403 30.0072 34.8336ZM25.1697 31.796C25.3 31.8024 25.4278 31.8348 25.5454 31.8912C25.663 31.9476 25.7682 32.027 25.8548 32.1246C25.9414 32.2222 26.0075 32.3362 26.0495 32.4597C26.0914 32.5833 26.1083 32.714 26.0991 32.8441C26.0932 32.9687 26.0629 33.0908 26.0097 33.2036C25.9566 33.3164 25.8817 33.4175 25.7893 33.5013C25.697 33.5851 25.589 33.6497 25.4715 33.6917C25.3541 33.7336 25.2296 33.7519 25.1051 33.7455C24.975 33.7431 24.8469 33.7141 24.7286 33.6601C24.6103 33.6061 24.5044 33.5283 24.4174 33.4317C24.3304 33.335 24.2642 33.2215 24.2229 33.0982C24.1816 32.9749 24.1662 32.8444 24.1774 32.7148C24.1927 32.4634 24.3044 32.2275 24.4892 32.0563C24.6741 31.8852 24.9178 31.7919 25.1697 31.796ZM42.7731 34.539C42.8214 34.4184 42.8453 34.2894 42.8434 34.1596C42.8434 34.0349 42.8188 33.9115 42.771 33.7964C42.7232 33.6813 42.6532 33.5768 42.5649 33.4888C42.4766 33.4008 42.3718 33.3312 42.2565 33.2838C42.1412 33.2364 42.0177 33.2122 41.8931 33.2127C41.7631 33.2085 41.6335 33.2312 41.5126 33.2792C41.3917 33.3272 41.282 33.3996 41.1902 33.4919C41.0984 33.5841 41.0266 33.6942 40.9793 33.8154C40.9319 33.9366 40.91 34.0662 40.9148 34.1962C40.9213 34.4472 41.0232 34.6863 41.1998 34.8648C41.3763 35.0433 41.6143 35.1478 41.8651 35.157C41.995 35.1564 42.1235 35.13 42.2432 35.0794C42.3628 35.0288 42.4712 34.9549 42.5622 34.8622C42.6531 34.7695 42.7248 34.6596 42.7731 34.539Z" fill="black"/>
</svg>
