<svg width="67" height="67" viewBox="0 0 67 67" fill="none" xmlns="http://www.w3.org/2000/svg">
<path fill-rule="evenodd" clip-rule="evenodd" d="M35.6001 0C36.0595 0.0655045 36.5209 0.124124 36.9825 0.182782C37.7505 0.280368 38.5194 0.378061 39.2815 0.50774C52.6223 2.77597 63.4041 13.1313 66.2429 26.3952C69.454 41.4179 62.2434 56.5278 48.5512 63.4476C44.6935 65.4043 40.4839 66.574 36.1682 66.8883C35.9767 66.9138 35.787 66.9511 35.6001 67H31.4049C31.3571 66.9885 31.3093 66.9755 31.2614 66.9625C31.164 66.9359 31.0663 66.9094 30.9679 66.8953C30.4666 66.8221 29.9638 66.757 29.4611 66.6919C28.43 66.5583 27.3993 66.4248 26.3828 66.2218C13.3968 63.6221 2.64475 52.4606 0.524405 39.4026C0.387889 38.5582 0.277853 37.71 0.167784 36.8615C0.112956 36.4388 0.0581208 36.0161 0 35.5938V31.4062C0.0674344 30.9373 0.129626 30.4673 0.191824 29.9972C0.326325 28.9807 0.46086 27.964 0.648518 26.957C3.15692 13.6094 14.2918 2.71664 27.6694 0.523438C28.4979 0.387343 29.3312 0.277615 30.1644 0.167887L30.1645 0.167875C30.581 0.113015 30.9976 0.0581553 31.4136 0H35.6001ZM65.0367 33.5105C65.0472 16.0975 50.9355 1.97336 33.5147 1.96289C16.094 1.95242 1.98051 16.0678 1.97002 33.4878C1.95953 50.9078 16.0748 65.0249 33.492 65.0371C50.9093 65.0493 65.0367 50.9305 65.0367 33.5105ZM28.914 39.2579H32.5237V38.3855V11.3029C32.5119 11.0196 32.5248 10.7359 32.5621 10.4549C32.5724 10.3397 32.6055 10.2276 32.6596 10.1253C32.7137 10.0229 32.7876 9.93233 32.8771 9.85878C32.9665 9.78522 33.0698 9.73017 33.1808 9.69682C33.2917 9.66347 33.4083 9.65249 33.5236 9.66451C33.7571 9.65213 33.986 9.73255 34.1603 9.88819C34.3345 10.0438 34.44 10.262 34.4535 10.495C34.4842 10.7766 34.4947 11.06 34.485 11.343V38.2965V39.2579H38.0964V38.5199C38.0964 36.8914 38.0952 35.2629 38.094 33.6345C38.0917 30.3775 38.0894 27.1206 38.0964 23.8636C38.0821 21.904 38.7891 20.0074 40.0831 18.5337C41.3772 17.06 43.1683 16.1117 45.1164 15.869C49.1893 15.3246 53.2272 18.3117 53.8985 22.3683C54.6064 26.6343 51.9337 30.6683 47.8101 31.5355C47.255 31.647 46.6911 31.71 46.125 31.7239C45.9998 31.7371 45.8733 31.7247 45.753 31.6875C45.6328 31.6502 45.5214 31.5889 45.4257 31.5072C45.33 31.4256 45.252 31.3254 45.1964 31.2126C45.1408 31.0999 45.1089 30.977 45.1024 30.8515C45.057 30.2827 45.4013 29.9128 46.0201 29.8046C46.2385 29.7629 46.46 29.7274 46.6818 29.6919C47.3032 29.5923 47.9266 29.4925 48.4883 29.2533C51.2345 28.0843 52.6154 25.1077 51.8375 22.2323C51.4659 20.852 50.612 19.6499 49.43 18.8433C48.248 18.0366 46.816 17.6785 45.3926 17.8336C42.4752 18.1599 40.1311 20.5747 40.0874 23.5496C40.0318 27.2849 40.0428 31.0203 40.0539 34.7557C40.0582 36.1884 40.0624 37.6211 40.0629 39.0538C40.0779 39.1447 40.1013 39.2341 40.1328 39.3207H51.8061C52.0457 39.3098 52.2857 39.3227 52.5228 39.3591C52.7546 39.3888 52.9655 39.5079 53.1105 39.6908C53.2556 39.8737 53.3232 40.1059 53.2989 40.3379C53.3084 40.5709 53.2254 40.7981 53.068 40.9703C52.9105 41.1425 52.6913 41.2457 52.4581 41.2574C52.2409 41.279 52.0225 41.2866 51.8043 41.2801H24.2713C23.2225 41.2801 22.7505 40.9661 22.7715 40.2717C22.7925 39.5772 23.233 39.319 24.2678 39.3172H26.8898C26.8976 39.2456 26.9062 39.1821 26.9141 39.1234C26.9294 39.0107 26.9423 38.9157 26.9423 38.8147C26.9423 37.1588 26.9446 35.5024 26.9469 33.846V33.8456V33.8452V33.8448V33.8444V33.8441V33.8437V33.8433V33.8417V33.841V33.8404V33.8398V33.8391V33.8385V33.8378C26.9516 30.5246 26.9563 27.2108 26.9423 23.8985C26.9248 20.3095 24.1454 17.6783 20.5917 17.8127C17.5449 17.9296 15.0225 20.5503 14.9421 23.6839C14.8635 26.7338 17.2355 29.4417 20.2386 29.7366C20.3322 29.746 20.4263 29.7534 20.5203 29.7608L20.5204 29.7608H20.5205C20.688 29.7739 20.8554 29.787 21.02 29.8116C21.6038 29.9006 21.9342 30.2897 21.9045 30.8323C21.8748 31.3749 21.4762 31.8059 20.9046 31.7274C20.7837 31.7107 20.6622 31.6944 20.5405 31.6781L20.5404 31.6781C19.6059 31.5531 18.6536 31.4257 17.7984 31.0783C14.3251 29.6651 12.3795 25.8579 13.1364 22.2148C13.5102 20.3958 14.5082 18.7641 15.9582 17.6009C17.4082 16.4377 19.2194 15.8159 21.0794 15.8428C22.9065 15.8777 24.6662 16.538 26.0638 17.7132C27.4614 18.8884 28.4121 20.5072 28.7567 22.2986C28.8604 22.9001 28.9101 23.5097 28.9053 24.1201C28.9158 28.8962 28.9158 33.6723 28.9053 38.4483L28.914 39.2579ZM40.0628 51.2288V48.2626L40.9543 48.2871C44.5948 48.2941 48.2359 48.2941 51.8776 48.2871C52.1592 48.2985 52.4408 48.2643 52.7114 48.1859C53.1852 48.0254 53.3792 47.645 53.3128 47.153C53.2977 46.9437 53.2077 46.7468 53.059 46.5984C52.9104 46.45 52.7131 46.3601 52.5034 46.3451C52.3083 46.3259 52.112 46.3207 51.9161 46.3294H15.1623C14.9658 46.3221 14.7692 46.3262 14.5732 46.3416C14.3511 46.3495 14.1403 46.4416 13.9838 46.5992C13.8272 46.7567 13.7367 46.9678 13.7306 47.1896C13.6782 47.6746 13.8897 48.0533 14.3687 48.1981C14.642 48.268 14.924 48.298 15.206 48.2871H26.1293H26.9369C26.9413 48.3844 26.9465 48.4738 26.9514 48.5582L26.9515 48.5584L26.9515 48.5585C26.9604 48.7114 26.9684 48.8478 26.9684 48.985C26.9684 49.2605 26.9672 49.5363 26.9661 49.8122C26.9637 50.3643 26.9614 50.9169 26.9684 51.4696C26.9736 51.9668 27.2323 52.3647 27.7165 52.3873C28.087 52.3744 28.4415 52.2338 28.7199 51.9895C28.8895 51.8464 28.9157 51.4713 28.9157 51.1991C28.9321 50.5123 28.9293 49.8218 28.9266 49.1277C28.9255 48.8626 28.9244 48.5969 28.9244 48.3307H32.5393C32.5393 48.6826 32.5365 49.0291 32.5338 49.3721V49.3727V49.3734V49.374V49.3747V49.3753V49.3759C32.5284 50.0537 32.5231 50.7175 32.5393 51.3806C32.5568 52.089 33.0777 52.5426 33.6581 52.4275C34.2384 52.3123 34.4901 51.9128 34.4901 51.3422V48.3202H38.1033V51.2288C38.1103 51.9878 38.4861 52.4501 39.0874 52.4501C39.6887 52.4501 40.0628 51.993 40.0628 51.2288ZM16.9087 23.6107C16.9541 21.4942 18.8088 19.7407 20.985 19.7529C23.1211 19.7669 24.9495 21.5379 24.9828 23.6246C24.9932 24.2719 24.6244 24.7169 24.0511 24.743C23.4777 24.7692 23.1124 24.4168 23.0302 23.7886C22.8554 22.4888 22.0758 21.7141 20.9326 21.7158C19.7894 21.7176 19.0308 22.4888 18.856 23.8096C18.7738 24.429 18.384 24.7814 17.8194 24.7483C17.2548 24.7151 16.8947 24.265 16.9087 23.6107ZM43.2827 20.8687C42.5411 21.5743 42.0946 22.5339 42.0328 23.5547C42.0013 24.2195 42.3352 24.6784 42.8946 24.7482C43.4976 24.8145 43.9014 24.4341 43.9888 23.7362C44.1374 22.5114 44.9572 21.7227 46.0725 21.7245C47.1877 21.7262 47.997 22.5236 48.1491 23.7449C48.233 24.4254 48.5914 24.7866 49.1857 24.7517C49.78 24.7168 50.1384 24.2527 50.1017 23.5547C50.0395 22.5212 49.5827 21.5507 48.8254 20.8432C48.0681 20.1356 47.0678 19.7448 46.0305 19.7511C45.006 19.7638 44.0243 20.1631 43.2827 20.8687ZM17.0852 41.2625C16.8312 41.2625 16.5771 41.2639 16.3231 41.2653H16.3225C15.8146 41.268 15.3067 41.2707 14.7988 41.2625C14.0996 41.2468 13.7168 40.8944 13.7028 40.3151C13.6888 39.7359 14.0996 39.3171 14.8145 39.3101C16.3388 39.295 17.8631 39.295 19.3873 39.3101C20.0866 39.3101 20.5358 39.7219 20.5323 40.2977C20.5288 40.8734 20.0866 41.2503 19.3716 41.2643C18.8788 41.2699 18.3816 41.2675 17.8871 41.2651H17.8871H17.887C17.6186 41.2638 17.3509 41.2625 17.0852 41.2625ZM28.6093 56.066C28.7958 55.8802 28.902 55.6288 28.9052 55.3657C28.9012 55.2358 28.8713 55.1081 28.8172 54.9899C28.7631 54.8717 28.686 54.7655 28.5903 54.6774C28.4945 54.5894 28.3822 54.5213 28.2598 54.4771C28.1374 54.4329 28.0074 54.4135 27.8774 54.42C27.7526 54.4234 27.6297 54.4514 27.5158 54.5025C27.4019 54.5535 27.2992 54.6265 27.2137 54.7174C27.1282 54.8082 27.0616 54.9151 27.0177 55.0317C26.9738 55.1484 26.9535 55.2726 26.9579 55.3971C26.9606 55.649 27.0609 55.8901 27.2379 56.0698C27.4149 56.2494 27.6548 56.3535 27.9071 56.3602C28.1707 56.3575 28.4227 56.2519 28.6093 56.066ZM39.0822 56.3569C38.819 56.3469 38.57 56.2349 38.3882 56.0446C38.2064 55.8544 38.1061 55.6008 38.1086 55.3379C38.1229 55.0868 38.2334 54.8507 38.4173 54.6786C38.6011 54.5064 38.8442 54.4114 39.0962 54.4132C39.2266 54.4115 39.3559 54.4367 39.4761 54.4871C39.5963 54.5375 39.7048 54.6121 39.7948 54.7063C39.8849 54.8004 39.9545 54.912 39.9994 55.0342C40.0443 55.1564 40.0635 55.2865 40.0559 55.4164C40.046 55.6681 39.9392 55.9063 39.7579 56.0815C39.5766 56.2566 39.3345 56.3553 39.0822 56.3569ZM33.1083 56.2643C33.2259 56.3196 33.3534 56.351 33.4833 56.3568C33.7347 56.3582 33.9771 56.2632 34.1605 56.0915C34.344 55.9198 34.4544 55.6844 34.4692 55.4338C34.4801 55.3043 34.4639 55.1739 34.4216 55.0509C34.3794 54.9279 34.312 54.815 34.2237 54.7194C34.1355 54.6237 34.0283 54.5474 33.909 54.4953C33.7896 54.4432 33.6607 54.4164 33.5305 54.4166C33.4059 54.4101 33.2812 54.4284 33.1637 54.4706C33.0463 54.5128 32.9385 54.578 32.8467 54.6624C32.7548 54.7467 32.6808 54.8485 32.6289 54.9618C32.5771 55.0751 32.5484 55.1976 32.5446 55.3222C32.5375 55.4518 32.5563 55.5815 32.5997 55.7038C32.6432 55.8261 32.7105 55.9387 32.7978 56.0349C32.8851 56.1311 32.9906 56.2091 33.1083 56.2643Z" fill="black"/>
</svg>
