<svg width="67" height="68" viewBox="0 0 67 68" fill="none" xmlns="http://www.w3.org/2000/svg">
<path fill-rule="evenodd" clip-rule="evenodd" d="M66.993 35.5728C66.9322 35.9984 66.8812 36.4265 66.8301 36.8544C66.7345 37.6563 66.6389 38.4578 66.4794 39.2414C63.9044 52.0482 56.4957 60.9034 44.1903 65.1624C26.0606 71.4514 6.58403 61.0449 1.2751 42.5798C-3.40843 26.2949 5.18472 8.73642 20.9106 2.44746C24.1034 1.15526 27.4772 0.365588 30.9118 0.10656C31.0824 0.0829674 31.2511 0.0473604 31.4167 0H35.6093C35.673 0.0133745 35.7346 0.0279098 35.7954 0.0422517C35.9013 0.0672488 36.0048 0.0916583 36.1124 0.108309C36.6676 0.194622 37.2252 0.269458 37.7828 0.344289C38.952 0.501184 40.121 0.658056 41.2659 0.920638C54.1618 3.86772 64.3097 14.6638 66.4916 27.7064C66.6334 28.5544 66.7424 29.4024 66.8518 30.254V30.254V30.2541V30.2542L66.852 30.2557L66.8522 30.2573C66.9004 30.6326 66.9487 31.0085 67 31.3854L66.993 35.5728ZM65.0312 33.5045C65.0539 16.1085 50.9527 1.98801 33.534 1.96355C16.1153 1.9391 2.00706 16.0421 1.98784 33.4538C1.96862 50.8655 16.0699 64.972 33.4833 64.9964C50.8968 65.0209 65.0068 50.9179 65.0312 33.5045ZM41.7236 41.2189H42.4224H51.8384C52.1199 41.2068 52.4017 41.2387 52.6734 41.3133C53.1486 41.4687 53.3495 41.8373 53.2901 42.3352C53.2783 42.545 53.1912 42.7435 53.0449 42.8943C52.8986 43.0451 52.7028 43.1381 52.4935 43.1563C52.2764 43.1784 52.0581 43.1849 51.8401 43.1755H15.1545C14.9588 43.1819 14.7628 43.1778 14.5675 43.1633C14.3455 43.1567 14.1343 43.0658 13.9769 42.9091C13.8195 42.7523 13.7277 42.5415 13.7203 42.3195C13.6761 42.0895 13.7249 41.8514 13.8558 41.6573C13.9868 41.4632 14.1893 41.3288 14.419 41.2836C14.6735 41.2272 14.9343 41.2049 15.1947 41.2172H24.6107H25.4841C25.2101 41.032 24.9494 40.8606 24.6994 40.6961L24.6987 40.6957L24.6984 40.6955L24.6984 40.6955C24.1869 40.3591 23.7199 40.052 23.2742 39.7166C14.1238 32.8284 14.2251 19.1027 23.4699 12.3334C23.4918 12.3175 23.5134 12.3012 23.5352 12.2848L23.5352 12.2848C23.5829 12.2488 23.6309 12.2126 23.6813 12.1814C24.2054 11.8582 24.7574 11.9368 25.0788 12.3753C25.4003 12.8138 25.3059 13.3291 24.836 13.7606C24.5363 14.038 24.2273 14.308 23.9183 14.5781C23.1918 15.2131 22.4649 15.8485 21.8557 16.5802C14.5448 25.3655 19.5847 38.9881 30.8524 40.9499C32.8947 41.3161 34.9906 41.2576 37.0093 40.778C39.028 40.2983 40.9262 39.4079 42.5854 38.1621C44.2447 36.9164 45.6295 35.3421 46.6535 33.5375C47.6774 31.7328 48.3184 29.7366 48.5367 27.6732C49.4259 19.3543 43.1893 11.8058 34.8652 11.093C32.7085 10.9002 30.5354 11.1688 28.4906 11.8809C28.4085 11.9089 28.3246 11.9368 28.2408 11.9613C27.6101 12.1499 27.0965 11.9316 26.8991 11.3953C26.7017 10.8589 26.9777 10.3471 27.5979 10.1165C29.6245 9.36435 31.7767 9.00851 33.9375 9.06835C41.0144 9.26051 47.2876 13.8235 49.5971 20.4496C52.2804 28.1361 49.2477 36.5214 42.246 40.7577L41.6974 41.0931L41.7236 41.2189ZM31.5176 28.3552C31.8471 28.1658 32.1811 27.9738 32.5208 27.778C32.5208 28.1355 32.5212 28.4873 32.5217 28.8347V28.8386V28.8391C32.5234 30.1537 32.525 31.4042 32.5016 32.6537C32.4981 32.8284 32.3094 33.0293 32.1644 33.1778C31.9143 33.4337 31.659 33.6843 31.4036 33.9349L31.4034 33.9351L31.4032 33.9353C30.897 34.4321 30.3909 34.9287 29.9266 35.4662C29.8165 35.6254 29.7428 35.8068 29.7105 35.9975C29.6782 36.1883 29.6881 36.3838 29.7396 36.5703C29.8252 36.8184 30.2794 37.063 30.5921 37.0944C30.8542 37.1206 31.1966 36.8848 31.4184 36.6751C31.9266 36.1975 32.4209 35.693 32.9316 35.1718L32.9316 35.1718L32.9316 35.1718L32.9322 35.1712C33.1236 34.9759 33.3172 34.7783 33.5148 34.5788C33.7447 34.8139 33.9675 35.0438 34.186 35.2694L34.1863 35.2697L34.1865 35.27C34.7149 35.8154 35.2184 36.3352 35.7386 36.8393C35.8272 36.9366 35.9351 37.0143 36.0554 37.0675C36.1757 37.1206 36.3058 37.1481 36.4374 37.1481C36.5689 37.1481 36.699 37.1206 36.8194 37.0675C36.9397 37.0143 37.0476 36.9366 37.1362 36.8393C37.5065 36.4515 37.517 35.9292 37.1274 35.4855C36.8539 35.1453 36.544 34.836 36.2033 34.5631C34.7603 33.5272 34.2083 32.1698 34.4564 30.4071C34.536 29.85 34.517 29.2783 34.4967 28.6667V28.6666V28.6665C34.4872 28.3789 34.4773 28.0824 34.4773 27.7745C34.8671 27.9988 35.2476 28.2154 35.6205 28.4277L35.6207 28.4278L35.6207 28.4278C36.5782 28.9729 37.4864 29.4899 38.3765 30.0368C38.6655 30.2398 38.8802 30.5319 38.9879 30.8683C39.1925 31.4974 39.3603 32.1386 39.528 32.7798C39.6081 33.0858 39.6882 33.3918 39.7723 33.6966C39.9854 34.4373 40.4449 34.7745 41.0336 34.598C41.6223 34.4216 41.8476 33.9132 41.6537 33.1708C41.481 32.5064 41.3056 31.8429 41.1241 31.1566L41.1233 31.1538C41.0536 30.89 40.983 30.623 40.9113 30.3512C41.2153 30.269 41.5155 30.1891 41.8128 30.1099L41.8133 30.1097C42.5014 29.9264 43.1737 29.7473 43.8409 29.5546C44.5222 29.3572 44.8035 28.8628 44.6288 28.2811C44.4593 27.7431 43.9649 27.4985 43.3133 27.6732C42.8767 27.7857 42.4419 27.9045 42.0071 28.0234L42.007 28.0234C41.4763 28.1685 40.9456 28.3136 40.4117 28.4471C40.1706 28.5082 39.8527 28.5781 39.664 28.475C38.6277 27.9038 37.6032 27.3081 36.5441 26.6922L36.5438 26.692C36.1907 26.4867 35.8338 26.2791 35.4713 26.0695L36.0017 25.7621L36.0022 25.7618L36.0031 25.7613C37.261 25.0321 38.4625 24.3356 39.6762 23.6552C39.8545 23.5939 40.0482 23.5939 40.2265 23.6552C40.6934 23.7688 41.1588 23.8887 41.6242 24.0086L41.6243 24.0086L41.6243 24.0086C42.2541 24.1709 42.8839 24.3331 43.5177 24.4798C44.22 24.6422 44.8541 24.0623 44.6358 23.4089C44.5605 23.2289 44.4502 23.0657 44.3113 22.9287C44.1725 22.7916 44.0079 22.6835 43.8269 22.6106C43.1585 22.3732 42.4686 22.1939 41.7637 22.0106L41.7636 22.0106L41.7634 22.0106C41.4828 21.9377 41.1998 21.8641 40.9148 21.786L41.086 21.1399L41.0862 21.1394L41.0872 21.1355C41.2836 20.395 41.4734 19.6795 41.659 18.963C41.8494 18.2292 41.6258 17.6964 41.0318 17.541C40.4379 17.3855 39.9767 17.7156 39.7723 18.4546C39.6833 18.7822 39.5958 19.1105 39.5084 19.4388L39.5082 19.4396L39.508 19.4403C39.3382 20.0779 39.1683 20.716 38.9862 21.351C38.9233 21.5676 38.8307 21.8454 38.656 21.9485C37.6353 22.5614 36.6014 23.152 35.5442 23.7559L35.5439 23.756L35.5436 23.7563L35.5369 23.7601C35.2105 23.9465 34.8819 24.1342 34.5507 24.3243C34.5191 24.1998 34.4969 24.0731 34.4843 23.9452C34.4836 23.6534 34.4824 23.3615 34.4811 23.0697C34.4763 21.9448 34.4716 20.8202 34.4965 19.6967C34.5279 19.4241 34.6511 19.1702 34.8459 18.9769C35.2404 18.5584 35.6481 18.1531 36.0557 17.7479C36.3899 17.4157 36.7239 17.0836 37.0506 16.7444C37.5275 16.25 37.5292 15.6997 37.1344 15.2961C36.7396 14.8926 36.1666 14.9118 35.681 15.352C35.5554 15.4627 35.4378 15.5831 35.3174 15.7063C35.2687 15.7562 35.2195 15.8066 35.1691 15.8569L33.4711 17.5462C33.2413 17.3099 33.0189 17.0792 32.801 16.8531C32.3229 16.3572 31.866 15.8833 31.3992 15.4202C30.8944 14.924 30.3126 14.8734 29.8986 15.2734C29.4479 15.7084 29.4881 16.2639 30.0279 16.816C30.2632 17.0555 30.5027 17.2917 30.7422 17.5281L30.7423 17.5281L30.7423 17.5282C31.2015 17.9813 31.6611 18.4347 32.0928 18.9123C32.3291 19.1763 32.4737 19.5097 32.505 19.8626C32.5376 20.7828 32.5316 21.7038 32.5255 22.6251V22.6253V22.6254C32.5231 22.9896 32.5208 23.3539 32.5208 23.7181C32.5208 23.835 32.506 23.9512 32.4885 24.0891L32.4885 24.0892L32.4885 24.0893L32.4885 24.0894C32.479 24.1637 32.4688 24.2443 32.4596 24.3348C32.1097 24.1327 31.7646 23.9342 31.4234 23.738L31.422 23.7371L31.4218 23.7371C30.3802 23.138 29.3745 22.5596 28.3788 21.9624C28.201 21.8126 28.0781 21.608 28.0294 21.3807C27.8547 20.7802 27.6936 20.1762 27.5326 19.5723C27.436 19.21 27.3393 18.8476 27.2398 18.486C27.0284 17.7139 26.5428 17.375 25.9401 17.5497C25.3758 17.7191 25.1627 18.2485 25.3583 18.9996C25.4614 19.393 25.5651 19.7874 25.6698 20.1858L25.6726 20.1964L25.6729 20.1975L25.673 20.1979C25.8105 20.7208 25.9499 21.2508 26.092 21.7947C25.7885 21.8767 25.4906 21.956 25.1968 22.0343L25.1966 22.0343L25.1966 22.0344L25.1965 22.0344C24.4946 22.2213 23.8163 22.402 23.1415 22.5966C22.4864 22.794 22.2121 23.2499 22.3641 23.8194C22.5161 24.3889 22.972 24.6318 23.6498 24.4571C23.893 24.3946 24.1358 24.332 24.3785 24.2694L24.3787 24.2694L24.3789 24.2693C25.1685 24.0657 25.9566 23.8625 26.7489 23.6674C26.9271 23.622 27.1629 23.5679 27.3009 23.6447C28.3416 24.2255 29.3736 24.8208 30.4358 25.4334L30.4358 25.4335C30.8018 25.6445 31.1713 25.8577 31.546 26.073C31.2094 26.268 30.8785 26.4606 30.5515 26.6508C29.4696 27.2803 28.4313 27.8845 27.3795 28.468C27.2031 28.5606 26.9131 28.5222 26.6965 28.468C26.083 28.3158 25.4723 28.1516 24.8617 27.9876L24.8615 27.9875C24.5055 27.8918 24.1495 27.7962 23.7931 27.7029C23.0349 27.5037 22.5423 27.7186 22.3676 28.3038C22.1894 28.9222 22.5126 29.3625 23.3127 29.5843L26.0955 30.3512C26.0091 30.677 25.9242 30.995 25.8406 31.3079L25.8392 31.3129L25.8389 31.3143C25.668 31.9539 25.503 32.5719 25.3426 33.19C25.1522 33.922 25.4107 34.4408 25.9907 34.6015C26.5707 34.7622 27.0319 34.4233 27.2363 33.6739C27.3259 33.3442 27.4143 33.0139 27.5027 32.6834L27.503 32.6822L27.5031 32.6818C27.6731 32.0463 27.8432 31.4104 28.0224 30.7775C28.0783 30.5731 28.1569 30.3163 28.3089 30.2237C29.3537 29.599 30.4099 28.9919 31.5174 28.3553L31.5174 28.3553L31.5176 28.3552ZM27.5682 48.2172H40.0553C40.9917 48.2172 41.4703 48.5543 41.4668 49.1954C41.4633 49.8366 40.9777 50.179 40.0483 50.179H15.1405C14.9231 50.1885 14.7052 50.175 14.4906 50.1388C14.2593 50.1086 14.049 49.9893 13.9044 49.8062C13.7598 49.6231 13.6925 49.3908 13.7168 49.1588C13.7111 49.043 13.7286 48.9273 13.7681 48.8184C13.8076 48.7095 13.8684 48.6096 13.9469 48.5244C14.0255 48.4392 14.1202 48.3705 14.2255 48.3222C14.3309 48.274 14.4447 48.2472 14.5605 48.2434C14.8008 48.2195 15.0424 48.2108 15.2838 48.2172H27.5682ZM52.1319 48.2171H48.5349C48.1492 48.2171 47.7637 48.2161 47.3783 48.215C46.5434 48.2128 45.7088 48.2105 44.8733 48.2189C44.1222 48.2241 43.7221 48.5368 43.7046 49.1605C43.6872 49.7841 44.1082 50.172 44.8786 50.172C47.2975 50.1801 49.717 50.1801 52.1371 50.172C52.8708 50.1685 53.2901 49.8068 53.3075 49.2199C53.325 48.5962 52.904 48.2171 52.1319 48.2171Z" fill="black"/>
</svg>
