<svg width="7" height="6" viewBox="0 0 7 6" fill="none" xmlns="http://www.w3.org/2000/svg">
<path d="M6.79323 1.05089C6.81942 1.07702 6.8402 1.10805 6.85438 1.14222C6.86856 1.17639 6.87586 1.21302 6.87586 1.25001C6.87586 1.28701 6.86856 1.32364 6.85438 1.35781C6.8402 1.39198 6.81942 1.42301 6.79323 1.44914L2.85573 5.38664C2.8296 5.41283 2.79857 5.43361 2.7644 5.44779C2.73023 5.46197 2.6936 5.46927 2.6566 5.46927C2.61961 5.46927 2.58298 5.46197 2.54881 5.44779C2.51464 5.43361 2.48361 5.41283 2.45748 5.38664L0.48873 3.41789C0.435919 3.36508 0.40625 3.29345 0.40625 3.21876C0.40625 3.14408 0.435919 3.07245 0.48873 3.01964C0.541541 2.96683 0.613169 2.93716 0.687855 2.93716C0.762542 2.93716 0.834169 2.96683 0.88698 3.01964L2.6566 4.78983L6.39498 1.05089C6.4211 1.0247 6.45214 1.00392 6.48631 0.989739C6.52048 0.97556 6.55711 0.968262 6.5941 0.968262C6.6311 0.968262 6.66773 0.97556 6.7019 0.989739C6.73607 1.00392 6.7671 1.0247 6.79323 1.05089Z" fill="#F5F5F5"/>
</svg>
