<svg width="15" height="15" viewBox="0 0 15 15" fill="none" xmlns="http://www.w3.org/2000/svg">
<path d="M0.49653 0.00109924C0.614337 0.0838279 0.74678 0.151181 0.847025 0.251114C3.02292 2.42305 5.19638 4.59803 7.3674 6.77606C7.40556 6.82082 7.43971 6.86883 7.46948 6.91956L7.5357 6.92358C7.56301 6.87155 7.59563 6.82248 7.63302 6.77716C9.80379 4.60059 11.9773 2.42561 14.1534 0.252213C14.2536 0.15228 14.385 0.0834608 14.5021 0H14.6191C14.6458 0.0109817 14.6718 0.0226964 14.6985 0.0329459C14.9839 0.142763 15.0706 0.472211 14.8719 0.703925C14.805 0.781529 14.7289 0.850347 14.6565 0.923558C12.5101 3.07109 10.3628 5.21789 8.21474 7.36395C8.17815 7.40056 8.13535 7.43716 8.08486 7.48145C8.13242 7.53233 8.16974 7.5737 8.20925 7.61323C10.3964 9.80322 12.5831 11.9935 14.7695 14.1839C14.8573 14.2718 14.9239 14.3812 15 14.4804V14.6858C14.8537 14.9505 14.6846 15.0519 14.4688 14.975C14.3791 14.9383 14.2984 14.8828 14.2321 14.8121C12.0323 12.6136 9.83367 10.4133 7.63631 8.21137C7.59549 8.16498 7.55761 8.11608 7.5229 8.06495C7.45668 8.12827 7.41314 8.16708 7.37399 8.20734C5.17443 10.4069 2.97402 12.6055 0.772757 14.8033C0.688298 14.8884 0.583129 14.9499 0.467628 14.9819C0.296039 15.024 0.152986 14.942 0.0600577 14.7894C0.0159523 14.7182 -0.00473339 14.635 0.00091115 14.5515C0.00655569 14.468 0.0382478 14.3883 0.0915234 14.3238C0.129772 14.2793 0.170443 14.2371 0.213354 14.1971C2.40242 12.0079 4.59137 9.8186 6.7802 7.62934C6.82154 7.58798 6.86727 7.551 6.91959 7.50451C6.86983 7.4518 6.83215 7.40971 6.79264 7.37017C4.60357 5.18092 2.41547 2.99068 0.228355 0.799469C0.135249 0.709309 0.0685716 0.595379 0.0355456 0.470019C-0.00945534 0.257341 0.108718 0.120433 0.380919 0.00109924H0.49653Z" fill="#909090"/>
</svg>
